<?xml version="1.0" encoding="utf-8"?>
<!-- Generator: Adobe Illustrator 16.0.0, SVG Export Plug-In . SVG Version: 6.00 Build 0)  -->
<!DOCTYPE svg PUBLIC "-//W3C//DTD SVG 1.1//EN" "http://www.w3.org/Graphics/SVG/1.1/DTD/svg11.dtd">
<svg version="1.1" id="Layer_1" xmlns="http://www.w3.org/2000/svg" xmlns:xlink="http://www.w3.org/1999/xlink" x="0px" y="0px"
	 width="313.243px" height="155.168px" viewBox="0 0 313.243 155.168" enable-background="new 0 0 313.243 155.168"
	 xml:space="preserve">
<rect y="5.186" fill="none" width="301.627" height="138.81"/>
<g enable-background="new    ">
	<path d="M43.032,10.366h-5.76V5.182h17.474v5.185h-5.761v29.475h-5.953V10.366z"/>
	<path d="M64.2,39.841h-5.953V5.182H66.6c6.673,0,10.081,2.832,10.081,10.225c0,5.569-2.16,7.825-4.176,8.737l5.04,15.697h-6.048
		l-4.224-14.354c-0.769,0.097-2.017,0.145-3.072,0.145V39.841z M64.2,20.735h2.112c3.216,0,4.417-1.2,4.417-5.329
		c0-4.128-1.2-5.328-4.417-5.328H64.2V20.735z"/>
	<path d="M85.704,39.841h-5.76l6.384-34.659h7.393l6.385,34.659h-5.76l-1.056-7.681H86.76L85.704,39.841z M87.624,26.976h4.8
		l-2.352-14.881h-0.096L87.624,26.976z"/>
	<path d="M114.407,13.727c-0.24-2.977-1.824-3.841-3.168-3.841c-1.92,0-2.977,1.249-2.977,3.409c0,5.904,12.097,8.736,12.097,18.146
		c0,5.712-3.84,8.881-9.409,8.881c-5.521,0-8.689-4.417-8.929-9.602l5.665-0.815c0.24,3.504,1.632,5.232,3.552,5.232
		c2.064,0,3.456-1.104,3.456-3.169c0-6.864-12.097-8.688-12.097-18.625c0-5.521,3.36-8.641,9.217-8.641
		c4.848,0,7.729,3.504,8.256,8.4L114.407,13.727z"/>
	<path d="M136.871,16.751v-2.688c0-2.928-1.344-4.177-2.88-4.177c-2.4,0-3.168,1.249-3.168,3.841v17.569
		c0,2.593,0.768,3.841,3.168,3.841c2.16,0,2.88-1.248,2.88-3.505v-4.176h5.953v3.984c0,4.896-2.88,8.881-8.833,8.881
		c-6.24,0-9.121-3.984-9.121-8.881V13.583c0-4.896,2.88-8.881,9.121-8.881c5.953,0,8.833,4.32,8.833,9.505v2.544H136.871z"/>
	<path d="M148.87,39.841V5.182h15.938v5.185h-9.985v8.929h7.68v5.185h-7.68v10.177h10.657v5.185H148.87z"/>
	<path d="M170.181,39.841V5.182h5.521l7.248,19.826h0.096V5.182h5.377v34.659h-5.184l-7.586-21.649h-0.096v21.649H170.181z"/>
	<path d="M194.181,5.182h8.833c6.145,0,9.408,3.36,9.408,10.465v13.729c0,7.104-3.264,10.465-9.408,10.465h-8.833V5.182z
		 M200.133,34.944h2.064c3.168,0,4.272-1.2,4.272-4.849V14.927c0-3.648-1.104-4.849-4.272-4.849h-2.064V34.944z"/>
	<path d="M218.181,39.841V5.182h15.937v5.185h-9.984v8.929h7.682v5.185h-7.682v10.177h10.657v5.185H218.181z"/>
	<path d="M245.446,39.841h-5.953V5.182h8.353c6.673,0,10.081,2.832,10.081,10.225c0,5.569-2.16,7.825-4.176,8.737l5.039,15.697
		h-6.048l-4.224-14.354c-0.77,0.097-2.018,0.145-3.072,0.145V39.841z M245.446,20.735h2.111c3.217,0,4.416-1.2,4.416-5.329
		c0-4.128-1.199-5.328-4.416-5.328h-2.111V20.735z"/>
</g>
<g enable-background="new    ">
	<path d="M6.337,91.841h-5.76l6.384-34.659h7.393l6.385,34.659h-5.76l-1.056-7.681H7.393L6.337,91.841z M8.257,78.976h4.8
		l-2.352-14.881h-0.096L8.257,78.976z"/>
	<path d="M38.304,62.366h-5.76v-5.185h17.474v5.185h-5.761v29.475h-5.953V62.366z"/>
	<path d="M59.471,91.841h-5.952V57.182h8.353c6.673,0,10.081,2.832,10.081,10.225c0,5.569-2.16,7.825-4.176,8.737l5.04,15.697
		h-6.048l-4.225-14.354c-0.768,0.097-2.016,0.145-3.072,0.145V91.841z M59.471,72.735h2.112c3.216,0,4.417-1.2,4.417-5.329
		c0-4.128-1.2-5.328-4.417-5.328h-2.112V72.735z"/>
	<path d="M80.975,91.841h-5.76l6.384-34.659h7.393l6.385,34.659h-5.761L88.56,84.16h-6.529L80.975,91.841z M82.896,78.976h4.8
		l-2.352-14.881h-0.096L82.896,78.976z"/>
	<path d="M109.2,57.182h5.856l-7.249,34.659h-5.953l-7.249-34.659h5.856l4.32,24.05h0.096L109.2,57.182z"/>
	<path d="M118.366,91.841V57.182h15.937v5.185h-9.984v8.929H132v5.185h-7.681v10.177h10.657v5.185H118.366z M127.295,55.357h-3.984
		l3.792-6.912h6.48L127.295,55.357z"/>
	<path d="M150.526,65.727c-0.24-2.977-1.824-3.841-3.168-3.841c-1.92,0-2.977,1.249-2.977,3.409c0,5.904,12.097,8.736,12.097,18.146
		c0,5.712-3.84,8.881-9.409,8.881c-5.521,0-8.689-4.417-8.929-9.602l5.665-0.815c0.24,3.504,1.632,5.232,3.552,5.232
		c2.064,0,3.456-1.104,3.456-3.169c0-6.864-12.097-8.688-12.097-18.625c0-5.521,3.36-8.641,9.217-8.641
		c4.849,0,7.729,3.504,8.257,8.4L150.526,65.727z"/>
</g>
<g enable-background="new    ">
	<path d="M97.583,109.182h8.833c6.145,0,9.409,3.36,9.409,10.465v13.729c0,7.104-3.265,10.465-9.409,10.465h-8.833V109.182z
		 M103.535,138.944h2.064c3.168,0,4.272-1.2,4.272-4.849v-15.169c0-3.648-1.104-4.849-4.272-4.849h-2.064V138.944z"/>
	<path d="M121.583,143.841v-34.659h15.937v5.185h-9.984v8.929h7.681v5.185h-7.681v10.177h10.657v5.185H121.583z"/>
	<path d="M142.606,143.841v-34.659h5.953v29.475h9.361v5.185H142.606z"/>
	<path d="M172.221,109.182h8.832c6.145,0,9.408,3.36,9.408,10.465v13.729c0,7.104-3.264,10.465-9.408,10.465h-8.832V109.182z
		 M178.172,138.944h2.064c3.169,0,4.273-1.2,4.273-4.849v-15.169c0-3.648-1.104-4.849-4.273-4.849h-2.064V138.944z"/>
	<path d="M197.037,143.841v-34.659h5.952v34.659H197.037z"/>
	<path d="M220.414,117.727c-0.239-2.977-1.823-3.841-3.168-3.841c-1.921,0-2.977,1.249-2.977,3.409
		c0,5.904,12.097,8.736,12.097,18.146c0,5.712-3.84,8.881-9.408,8.881c-5.521,0-8.689-4.417-8.929-9.602l5.665-0.815
		c0.239,3.504,1.631,5.232,3.552,5.232c2.063,0,3.456-1.104,3.456-3.169c0-6.864-12.098-8.688-12.098-18.625
		c0-5.521,3.361-8.641,9.217-8.641c4.85,0,7.729,3.504,8.258,8.4L220.414,117.727z"/>
	<path d="M230.875,143.841v-34.659h15.938v5.185h-9.984v8.929h7.68v5.185h-7.68v10.177h10.656v5.185H230.875z"/>
	<path d="M252.187,143.841v-34.659h5.521l7.248,19.826h0.096v-19.826h5.377v34.659h-5.184l-7.586-21.649h-0.096v21.649H252.187z
		 M269.132,101.069c-0.528,2.736-1.728,5.664-4.944,5.664c-1.152,0-2.16-0.479-3.12-0.96c-0.96-0.479-1.872-0.912-2.88-0.912
		c-1.488,0-1.969,0.72-2.017,2.112h-2.688c0.528-2.736,1.729-5.664,4.944-5.664c1.152,0,2.16,0.479,3.12,0.912
		c0.961,0.432,1.873,0.96,2.881,0.96c1.488,0,1.968-0.721,2.016-2.112H269.132z"/>
	<path d="M276.187,117.583c0-4.896,2.88-8.881,9.12-8.881c6.241,0,9.121,3.984,9.121,8.881v17.857c0,4.896-2.88,8.881-9.121,8.881
		c-6.24,0-9.12-3.984-9.12-8.881V117.583z M282.139,135.296c0,2.593,0.768,3.841,3.168,3.841s3.169-1.248,3.169-3.841v-17.569
		c0-2.592-0.769-3.841-3.169-3.841s-3.168,1.249-3.168,3.841V135.296z"/>
</g>
</svg>
