<?xml version="1.0" encoding="utf-8"?>
<!-- Generator: Adobe Illustrator 16.0.0, SVG Export Plug-In . SVG Version: 6.00 Build 0)  -->
<!DOCTYPE svg PUBLIC "-//W3C//DTD SVG 1.1//EN" "http://www.w3.org/Graphics/SVG/1.1/DTD/svg11.dtd">
<svg version="1.1" id="Layer_1" xmlns="http://www.w3.org/2000/svg" xmlns:xlink="http://www.w3.org/1999/xlink" x="0px" y="0px"
	 width="124.986px" height="106.614px" viewBox="0 0 124.986 106.614" enable-background="new 0 0 124.986 106.614"
	 xml:space="preserve">
<g>
	<g>
		<path d="M6.083,106.394V91.95h6.642v2.16H8.564v3.721h3.201v2.16H8.564v4.241h4.441v2.161H6.083z"/>
		<path d="M18.402,98.831l-2.641-6.881h2.44l1.521,4.58h0.04l1.38-4.58h2.44l-2.501,6.881l2.801,7.562h-2.44l-1.68-5.262h-0.04
			l-1.721,5.262h-2.44L18.402,98.831z"/>
		<path d="M31.232,96.771v-1.119c0-1.221-0.56-1.74-1.2-1.74c-1,0-1.32,0.52-1.32,1.6v7.322c0,1.08,0.32,1.6,1.32,1.6
			c0.9,0,1.2-0.52,1.2-1.461v-1.74h2.48v1.66c0,2.041-1.2,3.701-3.681,3.701c-2.601,0-3.801-1.66-3.801-3.701V95.45
			c0-2.04,1.2-3.7,3.801-3.7c2.48,0,3.681,1.8,3.681,3.961v1.06H31.232z"/>
		<path d="M36.949,106.394V91.95h2.48v12.282h3.901v2.161H36.949z"/>
		<path d="M46.055,91.95h2.48v10.902c0,1.061,0.42,1.58,1.32,1.58s1.32-0.52,1.32-1.58V91.95h2.48v10.803
			c0,2.48-1.44,3.84-3.801,3.84s-3.801-1.359-3.801-3.84V91.95z"/>
		<path d="M61.739,95.511c-0.101-1.24-0.761-1.6-1.32-1.6c-0.801,0-1.24,0.52-1.24,1.42c0,2.46,5.041,3.641,5.041,7.561
			c0,2.381-1.601,3.701-3.921,3.701c-2.301,0-3.621-1.84-3.721-4l2.36-0.341c0.1,1.46,0.68,2.181,1.48,2.181
			c0.859,0,1.439-0.46,1.439-1.32c0-2.86-5.041-3.621-5.041-7.762c0-2.301,1.4-3.601,3.841-3.601c2.021,0,3.221,1.46,3.441,3.501
			L61.739,95.511z"/>
		<path d="M67.357,106.394V91.95h2.48v14.443H67.357z"/>
		<path d="M78.803,91.95h2.439l-3.02,14.443H75.74l-3.02-14.443h2.439l1.801,10.021h0.041L78.803,91.95z"/>
		<path d="M84.145,106.394V91.95h2.48v14.443H84.145z"/>
		<path d="M90.076,91.95h3.682c2.561,0,3.92,1.4,3.92,4.361v5.721c0,2.961-1.359,4.361-3.92,4.361h-3.682V91.95z M92.557,104.353
			h0.861c1.32,0,1.779-0.5,1.779-2.021v-6.321c0-1.52-0.459-2.021-1.779-2.021h-0.861V104.353z"/>
		<path d="M102.539,106.394h-2.4l2.66-14.443h3.08l2.66,14.443h-2.4l-0.439-3.201h-2.721L102.539,106.394z M103.338,101.032h2.002
			l-0.98-6.201h-0.041L103.338,101.032z"/>
		<path d="M111.305,91.95h3.68c2.561,0,3.922,1.4,3.922,4.361v5.721c0,2.961-1.361,4.361-3.922,4.361h-3.68V91.95z M113.785,104.353
			h0.859c1.32,0,1.781-0.5,1.781-2.021v-6.321c0-1.52-0.461-2.021-1.781-2.021h-0.859V104.353z"/>
	</g>
</g>
<path d="M62.492,0C45.43,0,31.548,13.882,31.548,30.945c0,17.062,13.882,30.943,30.944,30.943c17.063,0,30.945-13.882,30.945-30.943
	C93.438,13.882,79.556,0,62.492,0z M62.492,34.944c-2.205,0-4-1.795-4-4c0-2.207,1.795-4.001,4-4.001
	c2.207,0,4.002,1.794,4.002,4.001C66.494,33.149,64.699,34.944,62.492,34.944z M64.551,38.787c3.48-0.915,6.059-4.079,6.059-7.843
	c0-4.476-3.641-8.117-8.117-8.117c-4.476,0-8.116,3.642-8.116,8.117c0,3.764,2.578,6.928,6.06,7.843v7.142
	c-7.377-1.01-13.085-7.335-13.085-14.984c0-8.349,6.793-15.142,15.142-15.142c8.351,0,15.143,6.793,15.143,15.142
	c0,7.649-5.706,13.975-13.084,14.984V38.787z M64.551,57.685v-7.596c9.654-1.031,17.2-9.221,17.2-19.145
	c0-10.619-8.639-19.258-19.259-19.258c-10.618,0-19.257,8.639-19.257,19.258c0,9.924,7.545,18.113,17.2,19.145v7.596
	C46.6,56.63,35.665,45.044,35.665,30.945c0-14.795,12.034-26.829,26.827-26.829c14.794,0,26.829,12.034,26.829,26.829
	C89.321,45.044,78.385,56.629,64.551,57.685z"/>
</svg>
