<?xml version="1.0" encoding="utf-8"?>
<!-- Generator: Adobe Illustrator 16.0.0, SVG Export Plug-In . SVG Version: 6.00 Build 0)  -->
<!DOCTYPE svg PUBLIC "-//W3C//DTD SVG 1.1//EN" "http://www.w3.org/Graphics/SVG/1.1/DTD/svg11.dtd">
<svg version="1.1" id="Layer_1" xmlns="http://www.w3.org/2000/svg" xmlns:xlink="http://www.w3.org/1999/xlink" x="0px" y="0px"
	 width="124.986px" height="106.614px" viewBox="0 0 124.986 106.614" enable-background="new 0 0 124.986 106.614"
	 xml:space="preserve">
<g>
	<g>
		<g>
			<path d="M0,106.415V91.972h6.922v2.16H2.48v3.721h3.321v2.16H2.48v6.402H0z"/>
			<path d="M9.932,91.972h2.48v10.902c0,1.061,0.42,1.58,1.32,1.58s1.32-0.52,1.32-1.58V91.972h2.48v10.803
				c0,2.48-1.44,3.84-3.801,3.84s-3.801-1.359-3.801-3.84V91.972z"/>
			<path d="M20.826,106.415V91.972h2.301l3.021,8.262h0.04v-8.262h2.24v14.443h-2.16l-3.161-9.022h-0.04v9.022H20.826z"/>
			<path d="M36.692,96.792v-1.119c0-1.221-0.56-1.74-1.2-1.74c-1,0-1.32,0.52-1.32,1.6v7.322c0,1.08,0.32,1.6,1.32,1.6
				c0.9,0,1.2-0.52,1.2-1.461v-1.74h2.48v1.66c0,2.041-1.2,3.701-3.681,3.701c-2.601,0-3.801-1.66-3.801-3.701v-7.441
				c0-2.04,1.2-3.7,3.801-3.7c2.48,0,3.681,1.8,3.681,3.961v1.06H36.692z"/>
			<path d="M42.638,106.415V91.972h2.48v14.443H42.638z"/>
			<path d="M48.543,95.472c0-2.04,1.2-3.7,3.801-3.7s3.801,1.66,3.801,3.7v7.441c0,2.041-1.2,3.701-3.801,3.701
				s-3.801-1.66-3.801-3.701V95.472z M51.023,102.854c0,1.08,0.32,1.6,1.32,1.6s1.32-0.52,1.32-1.6v-7.322c0-1.08-0.32-1.6-1.32-1.6
				s-1.32,0.52-1.32,1.6V102.854z"/>
			<path d="M59.409,106.415V91.972h2.301l3.021,8.262h0.04v-8.262h2.24v14.443h-2.16l-3.161-9.022h-0.04v9.022H59.409z"/>
			<path d="M72.176,106.415h-2.4l2.66-14.443h3.081l2.66,14.443h-2.4l-0.44-3.201h-2.72L72.176,106.415z M72.976,101.054h2.001
				l-0.98-6.201h-0.04L72.976,101.054z"/>
			<path d="M80.881,106.415V91.972h2.48v12.282h3.901v2.161H80.881z"/>
			<path d="M90.226,106.415V91.972h2.48v14.443H90.226z"/>
			<path d="M96.157,91.972h3.681c2.561,0,3.921,1.4,3.921,4.361v5.721c0,2.961-1.36,4.361-3.921,4.361h-3.681V91.972z
				 M98.638,104.374h0.86c1.32,0,1.78-0.5,1.78-2.021v-6.321c0-1.52-0.46-2.021-1.78-2.021h-0.86V104.374z"/>
			<path d="M108.619,106.415h-2.4l2.66-14.443h3.081l2.66,14.443h-2.4l-0.44-3.201h-2.72L108.619,106.415z M109.419,101.054h2.001
				l-0.98-6.201h-0.04L109.419,101.054z"/>
			<path d="M117.385,91.972h3.681c2.561,0,3.921,1.4,3.921,4.361v5.721c0,2.961-1.36,4.361-3.921,4.361h-3.681V91.972z
				 M119.865,104.374h0.86c1.32,0,1.78-0.5,1.78-2.021v-6.321c0-1.52-0.46-2.021-1.78-2.021h-0.86V104.374z"/>
		</g>
	</g>
	<path d="M86.527,32.496c-2.64,0-4.998,1.221-6.547,3.125L59.142,24.687L79.98,13.752c1.549,1.904,3.907,3.125,6.547,3.125
		c4.654,0,8.439-3.786,8.439-8.439C94.967,3.785,91.182,0,86.527,0c-4.653,0-8.438,3.785-8.438,8.438
		c0,0.539,0.055,1.065,0.152,1.577l-21.151,11.1c-1.349-2.87-4.26-4.866-7.635-4.866c-4.654,0-8.439,3.785-8.439,8.438
		c0,4.652,3.785,8.438,8.439,8.438c3.375,0,6.286-1.996,7.634-4.866l21.151,11.099c-0.098,0.512-0.152,1.038-0.152,1.578
		c0,4.653,3.784,8.438,8.438,8.438c4.654,0,8.439-3.784,8.439-8.438C94.967,36.283,91.182,32.496,86.527,32.496z M86.527,4.115
		c2.384,0,4.323,1.939,4.323,4.322c0,2.384-1.939,4.322-4.323,4.322c-2.383,0-4.321-1.938-4.321-4.322
		C82.206,6.055,84.145,4.115,86.527,4.115z M49.457,29.008c-2.383,0-4.321-1.938-4.321-4.321c0-2.384,1.938-4.322,4.321-4.322
		c2.305,0,4.178,1.819,4.299,4.095v0.455C53.634,27.189,51.762,29.008,49.457,29.008z M86.527,45.258
		c-2.383,0-4.321-1.939-4.321-4.322c0-2.384,1.938-4.323,4.321-4.323c2.384,0,4.323,1.939,4.323,4.323
		C90.851,43.318,88.911,45.258,86.527,45.258z"/>
</g>
</svg>
