<?xml version="1.0" encoding="utf-8"?>
<!-- Generator: Adobe Illustrator 16.0.0, SVG Export Plug-In . SVG Version: 6.00 Build 0)  -->
<!DOCTYPE svg PUBLIC "-//W3C//DTD SVG 1.1//EN" "http://www.w3.org/Graphics/SVG/1.1/DTD/svg11.dtd">
<svg version="1.1" id="Layer_1" xmlns="http://www.w3.org/2000/svg" xmlns:xlink="http://www.w3.org/1999/xlink" x="0px" y="0px"
	 width="319.576px" height="155.167px" viewBox="0 0 319.576 155.167" enable-background="new 0 0 319.576 155.167"
	 xml:space="preserve">
<rect y="5.185" fill="none" width="307.959" height="139.477"/>
<g enable-background="new    ">
	<path d="M22.898,42.431c-2.208,0-3.937-0.384-6.048-3.216c-1.296,0.72-2.928,1.104-4.849,1.104c-6.24,0-9.121-3.984-9.121-8.881
		V13.582c0-4.896,2.88-8.881,9.121-8.881c6.241,0,9.121,3.984,9.121,8.881v17.857c0,1.632-0.336,3.168-1.008,4.464
		c1.344,1.152,2.16,1.296,2.784,1.345V42.431z M12.433,27.455c0.624,0.336,1.584,0.815,2.736,2.112V13.725
		c0-2.592-0.768-3.841-3.168-3.841s-3.168,1.249-3.168,3.841v17.569c0,2.593,0.768,3.841,3.168,3.841
		c0.912,0,1.584-0.192,2.016-0.528c-0.672-1.248-1.2-1.584-1.584-1.872V27.455z"/>
	<path d="M26.88,5.18h5.953v26.162c0,2.545,1.008,3.793,3.168,3.793s3.168-1.248,3.168-3.793V5.18h5.953v25.923
		c0,5.952-3.457,9.217-9.121,9.217s-9.121-3.265-9.121-9.217V5.18z"/>
	<path d="M54.336,39.839h-5.76L54.96,5.18h7.393l6.385,34.659h-5.76l-1.056-7.681h-6.529L54.336,39.839z M56.257,26.974h4.8
		l-2.352-14.881h-0.096L56.257,26.974z"/>
	<path d="M72.192,5.18h8.833c6.145,0,9.409,3.36,9.409,10.465v13.729c0,7.104-3.265,10.465-9.409,10.465h-8.833V5.18z
		 M78.145,34.943h2.064c3.168,0,4.272-1.2,4.272-4.849V14.925c0-3.648-1.104-4.849-4.272-4.849h-2.064V34.943z"/>
	<path d="M102.145,39.839h-5.953V5.18h8.353c6.673,0,10.081,2.832,10.081,10.225c0,5.569-2.16,7.825-4.176,8.737l5.04,15.697h-6.048
		l-4.224-14.354c-0.769,0.097-2.017,0.145-3.072,0.145V39.839z M102.145,20.734h2.112c3.216,0,4.417-1.2,4.417-5.329
		c0-4.128-1.2-5.328-4.417-5.328h-2.112V20.734z"/>
	<path d="M123.648,39.839h-5.76l6.384-34.659h7.393l6.385,34.659h-5.76l-1.056-7.681h-6.529L123.648,39.839z M125.568,26.974h4.8
		l-2.352-14.881h-0.096L125.568,26.974z"/>
</g>
<g enable-background="new    ">
</g>
<g enable-background="new    ">
	<path d="M170.587,10.365h-5.761V5.18H182.3v5.185h-5.761v29.475h-5.952V10.365z"/>
	<path d="M185.802,13.582c0-4.896,2.881-8.881,9.121-8.881s9.121,3.984,9.121,8.881v17.857c0,4.896-2.881,8.881-9.121,8.881
		s-9.121-3.984-9.121-8.881V13.582z M191.755,31.294c0,2.593,0.768,3.841,3.168,3.841s3.168-1.248,3.168-3.841V13.725
		c0-2.592-0.768-3.841-3.168-3.841s-3.168,1.249-3.168,3.841V31.294z"/>
	<path d="M220.123,5.18h4.896l4.032,22.082h0.096L232.46,5.18h5.568l-6.096,34.659h-4.993l-4.32-22.898h-0.096l-4.032,22.898h-4.992
		L206.922,5.18h5.568l3.648,22.082h0.097L220.123,5.18z"/>
	<path d="M241.817,39.839V5.18h15.938v5.185h-9.984v8.929h7.681v5.185h-7.681v10.177h10.656v5.185H241.817z"/>
	<path d="M269.081,39.839h-5.952V5.18h8.353c6.673,0,10.081,2.832,10.081,10.225c0,5.569-2.16,7.825-4.177,8.737l5.041,15.697
		h-6.049l-4.225-14.354c-0.768,0.097-2.016,0.145-3.072,0.145V39.839z M269.081,20.734h2.112c3.216,0,4.417-1.2,4.417-5.329
		c0-4.128-1.201-5.328-4.417-5.328h-2.112V20.734z"/>
	<path d="M297.978,13.725c-0.24-2.977-1.824-3.841-3.168-3.841c-1.92,0-2.977,1.249-2.977,3.409c0,5.904,12.098,8.736,12.098,18.146
		c0,5.712-3.841,8.881-9.409,8.881c-5.521,0-8.688-4.417-8.929-9.602l5.664-0.815c0.24,3.504,1.633,5.232,3.553,5.232
		c2.064,0,3.456-1.104,3.456-3.169c0-6.864-12.097-8.688-12.097-18.625c0-5.521,3.359-8.641,9.217-8.641
		c4.848,0,7.729,3.504,8.256,8.4L297.978,13.725z"/>
</g>
<g enable-background="new    ">
	<path d="M93.021,65.582c0-4.896,2.88-8.881,9.121-8.881c6.241,0,9.121,3.984,9.121,8.881v17.857c0,4.896-2.88,8.881-9.121,8.881
		c-6.24,0-9.121-3.984-9.121-8.881V65.582z M98.974,83.294c0,2.593,0.768,3.841,3.168,3.841s3.168-1.248,3.168-3.841V65.725
		c0-2.592-0.768-3.841-3.168-3.841s-3.168,1.249-3.168,3.841V83.294z"/>
	<path d="M117.021,91.839V57.18h16.609v5.185h-10.657v8.929h7.968v5.185h-7.968v15.361H117.021z"/>
	<path d="M138.333,91.839V57.18h16.609v5.185h-10.657v8.929h7.968v5.185h-7.968v15.361H138.333z"/>
	<path d="M160.46,91.839V57.18h5.953v34.659H160.46z"/>
	<path d="M184.989,68.75v-2.688c0-2.928-1.344-4.177-2.881-4.177c-2.4,0-3.168,1.249-3.168,3.841v17.569
		c0,2.593,0.768,3.841,3.168,3.841c2.16,0,2.881-1.248,2.881-3.505v-4.176h5.953v3.984c0,4.896-2.881,8.881-8.834,8.881
		c-6.24,0-9.12-3.984-9.12-8.881V65.582c0-4.896,2.88-8.881,9.12-8.881c5.953,0,8.834,4.32,8.834,9.505v2.544H184.989z"/>
	<path d="M196.988,91.839V57.18h15.937v5.185h-9.984v8.929h7.682v5.185h-7.682v10.177h10.657v5.185H196.988z"/>
</g>
<g enable-background="new    ">
	<path d="M24.29,128.334c-0.672,3.168-2.016,6.096-3.264,9.072c0.912,0.816,2.112,1.44,3.312,1.632v5.281
		c-2.544-0.049-4.896-0.961-6.72-2.641c-1.92,1.824-3.84,2.641-6.817,2.641c-5.04,0-8.305-3.312-8.305-8.113
		c0-3.601,2.16-7.2,4.561-9.793c-1.248-2.784-2.736-6.528-2.736-9.553c0-4.704,2.544-8.16,7.537-8.16c4.369,0,7.057,2.88,7.057,7.2
		s-3.264,7.537-5.953,10.513c1.2,2.496,2.641,4.896,4.32,7.057c0.816-2.112,1.632-4.225,2.112-6.433L24.29,128.334z M11.473,139.135
		c1.152,0,1.824-0.24,2.736-1.009c-1.824-2.16-3.504-4.416-4.752-6.96c-1.008,1.536-1.488,2.448-1.488,4.272
		C7.969,137.455,9.409,139.135,11.473,139.135z M10.849,122.238c1.392-1.824,2.88-3.937,2.88-6.337c0-2.688-0.768-3.744-2.16-3.744
		c-1.488,0-2.352,1.248-2.352,3.408C9.217,117.773,10.033,120.221,10.849,122.238z"/>
</g>
<g enable-background="new    ">
</g>
<g enable-background="new    ">
	<path d="M197.083,143.839h-5.953V109.18h8.354c6.672,0,10.08,2.832,10.08,10.225c0,5.569-2.16,7.825-4.176,8.737l5.04,15.697
		h-6.048l-4.225-14.354c-0.769,0.097-2.017,0.145-3.072,0.145V143.839z M197.083,124.734h2.111c3.217,0,4.417-1.2,4.417-5.329
		c0-4.128-1.2-5.328-4.417-5.328h-2.111V124.734z"/>
	<path d="M215.13,143.839V109.18h15.938v5.185h-9.984v8.929h7.681v5.185h-7.681v10.177h10.656v5.185H215.13z"/>
	<path d="M239.897,114.365h-5.76v-5.185h17.474v5.185h-5.761v29.475h-5.953V114.365z"/>
	<path d="M257.706,143.839h-5.761l6.384-34.659h7.393l6.385,34.659h-5.76l-1.057-7.681h-6.528L257.706,143.839z M259.626,130.974
		h4.801l-2.353-14.881h-0.097L259.626,130.974z"/>
	<path d="M276.377,143.839V109.18h5.952v34.659H276.377z"/>
	<path d="M288.616,143.839V109.18h5.953v29.475h9.361v5.185H288.616z"/>
</g>
</svg>
