<?xml version="1.0" encoding="utf-8"?>
<!-- Generator: Adobe Illustrator 16.0.0, SVG Export Plug-In . SVG Version: 6.00 Build 0)  -->
<!DOCTYPE svg PUBLIC "-//W3C//DTD SVG 1.1//EN" "http://www.w3.org/Graphics/SVG/1.1/DTD/svg11.dtd">
<svg version="1.1" id="Layer_1" xmlns="http://www.w3.org/2000/svg" xmlns:xlink="http://www.w3.org/1999/xlink" x="0px" y="0px"
	 width="199.87px" height="34.49px" viewBox="0 0 199.87 34.49" enable-background="new 0 0 199.87 34.49" xml:space="preserve">
<g>
	<g>
		<path d="M17.9,9.517V0.253h3.231v8.936c0,2.651,1.161,3.912,3.206,3.912c2.045,0,3.207-1.261,3.207-3.912V0.253h3.231v9.264
			c0,4.267-2.55,6.488-6.438,6.488C20.475,16.005,17.9,13.784,17.9,9.517z"/>
		<path d="M41.856,0.253l5.932,15.5h-3.282l-1.389-3.736h-5.806l-1.363,3.736h-3.231l5.933-15.5H41.856z M38.322,9.29h3.787
			l-1.893-5.149L38.322,9.29z"/>
		<path d="M50.56,0.253h5.479c4.695,0,7.649,3.029,7.649,7.75c0,4.721-2.954,7.75-7.649,7.75H50.56V0.253z M55.912,12.9
			c2.954,0,4.569-1.893,4.569-4.897c0-3.028-1.615-4.922-4.569-4.922h-2.146V12.9H55.912z"/>
		<path d="M70.301,9.971v5.781h-3.207v-15.5h6.388c3.256,0,5.427,1.742,5.427,4.922c0,2.475-1.363,4.04-3.534,4.569l4.09,6.008
			h-3.636l-3.837-5.781H70.301z M70.301,7.321h2.978c1.616,0,2.449-0.859,2.449-2.146c0-1.312-0.833-2.171-2.449-2.171h-2.978V7.321
			z"/>
		<path d="M90.798,0.253l5.933,15.5h-3.282l-1.389-3.736h-5.805l-1.364,3.736H81.66l5.933-15.5H90.798z M87.264,9.29h3.787
			l-1.893-5.149L87.264,9.29z"/>
		<path d="M105.393,0.253h13.228v2.828h-4.998v12.672h-3.258V3.081h-4.972V0.253z"/>
		<path d="M127.86,16.005c-4.316,0-7.32-3.383-7.32-8.003c0-4.644,3.004-8.002,7.32-8.002c4.317,0,7.347,3.358,7.347,8.002
			C135.207,12.623,132.178,16.005,127.86,16.005z M127.86,2.878c-2.448,0-4.039,2.096-4.039,5.124c0,3.029,1.591,5.125,4.039,5.125
			c2.475,0,4.09-2.096,4.09-5.125C131.95,4.974,130.335,2.878,127.86,2.878z"/>
		<path d="M14.667,8.002C14.667,3.358,11.637,0,7.321,0C3.004,0,0,3.358,0,8.002c0,4.62,3.004,8.003,7.321,8.003
			c1.166,0,2.234-0.254,3.177-0.706l1.241,1.538l2.069-1.616l-1.205-1.476C13.906,12.322,14.667,10.318,14.667,8.002z M7.321,2.878
			c2.474,0,4.089,2.096,4.089,5.124c0,3.029-1.616,5.125-4.089,5.125c-2.449,0-4.039-2.096-4.039-5.125
			C3.282,4.974,4.872,2.878,7.321,2.878z"/>
		<path d="M147.995,0.253l2.676,10.426l2.55-10.426h3.181l-4.039,15.5h-2.953l-2.727-10.225l-2.727,10.225h-2.953l-4.039-15.5h3.257
			l2.524,10.426l2.726-10.426H147.995z"/>
		<path d="M169.675,0.253v2.828h-7.346v3.382h6.665v2.752h-6.665V12.9h7.346v2.853h-10.526v-15.5H169.675z"/>
		<path d="M176.66,9.971v5.781h-3.207v-15.5h6.388c3.256,0,5.427,1.742,5.427,4.922c0,2.475-1.362,4.04-3.534,4.569l4.09,6.008
			h-3.635l-3.838-5.781H176.66z M176.66,7.321h2.979c1.616,0,2.448-0.859,2.448-2.146c0-1.312-0.832-2.171-2.448-2.171h-2.979V7.321
			z"/>
		<path d="M191.011,11.335c0.428,1.363,1.564,1.995,3.08,1.995c1.564,0,2.6-0.707,2.6-1.944c0-0.935-0.556-1.439-1.894-1.743
			l-2.776-0.631c-2.222-0.505-3.938-1.691-3.938-4.241c0-2.802,2.322-4.771,5.579-4.771c3.533,0,5.578,1.869,6.084,4.494h-3.207
			c-0.353-1.036-1.236-1.843-2.852-1.843c-1.465,0-2.449,0.708-2.449,1.817c0,0.884,0.58,1.415,1.742,1.692l2.827,0.656
			c2.524,0.58,4.063,2.02,4.063,4.367c0,3.004-2.473,4.822-5.754,4.822c-3.459,0-5.908-1.717-6.438-4.67H191.011z"/>
	</g>
	<g>
		<g>
			<path d="M40.439,34.49c-2.349,0-4.041-1.912-4.041-4.609c0-2.715,1.692-4.61,4.041-4.61c2.363,0,4.055,1.896,4.055,4.61
				C44.495,32.578,42.803,34.49,40.439,34.49z M40.439,26.306c-1.721,0-2.889,1.473-2.889,3.574c0,2.101,1.167,3.573,2.889,3.573
				c1.736,0,2.903-1.473,2.903-3.573C43.342,27.779,42.175,26.306,40.439,26.306z"/>
			<path d="M48.213,34.359v-8.957h5.471v1.02h-4.318v3.021h4.056v1.02h-4.056v3.896H48.213z"/>
			<path d="M57.184,34.359v-8.957h5.471v1.02h-4.318v3.021h4.056v1.02h-4.056v3.896H57.184z"/>
			<path d="M67.305,34.359h-1.152v-8.957h1.152V34.359z"/>
			<path d="M75.027,25.27c1.882,0,3.123,1.095,3.487,2.757h-1.138c-0.365-1.035-1.109-1.721-2.349-1.721
				c-1.707,0-2.859,1.444-2.859,3.574c0,2.115,1.138,3.573,2.859,3.573c1.24,0,1.984-0.687,2.349-1.735h1.138
				c-0.364,1.678-1.62,2.771-3.487,2.771c-2.261,0-4.012-1.823-4.012-4.609C71.016,27.093,72.767,25.27,75.027,25.27z"/>
			<path d="M87.89,25.402v1.02h-4.566v2.831h4.143v1.021h-4.143v3.049h4.566v1.037h-5.704v-8.957H87.89z"/>
			<path d="M101.187,27.444c-0.043-0.729-0.496-1.284-1.297-1.284c-0.773,0-1.386,0.496-1.386,1.343
				c0,0.655,0.453,1.123,0.963,1.678l2.51,2.669c0.248-0.568,0.393-1.239,0.422-1.983h1.021c-0.029,0.978-0.291,1.926-0.773,2.712
				l1.678,1.781h-1.443l-0.891-0.934c-0.656,0.656-1.517,1.064-2.567,1.064c-1.707,0-2.903-1.152-2.903-2.742
				c0-1.08,0.686-1.999,1.634-2.451c-0.438-0.539-0.715-1.05-0.715-1.766c0-1.4,1.064-2.261,2.451-2.261
				c1.516,0,2.334,0.962,2.392,2.174H101.187z M101.377,32.767l-2.611-2.785c-0.7,0.263-1.196,0.963-1.196,1.766
				c0,1.064,0.758,1.822,1.853,1.822C100.239,33.57,100.896,33.279,101.377,32.767z"/>
			<path d="M114.019,30.566v3.793h-1.152v-8.957h3.326c1.795,0,2.932,0.904,2.932,2.597c0,1.487-0.875,2.333-2.275,2.522
				l2.641,3.838h-1.312l-2.568-3.793H114.019z M114.019,29.587h2.145c1.182,0,1.824-0.598,1.824-1.589
				c0-0.992-0.643-1.591-1.824-1.591h-2.145V29.587z"/>
			<path d="M128.672,25.402v1.02h-4.566v2.831h4.144v1.021h-4.144v3.049h4.566v1.037h-5.704v-8.957H128.672z"/>
			<path d="M131.952,25.402h7.396v1.02h-3.122v7.938h-1.152v-7.938h-3.121V25.402z"/>
			<path d="M145.521,25.402l3.501,8.957h-1.167l-1.036-2.699h-3.69l-1.021,2.699h-1.167l3.502-8.957H145.521z M143.508,30.652h2.918
				l-1.459-3.82L143.508,30.652z"/>
			<path d="M153.561,34.359h-1.152v-8.957h1.152V34.359z"/>
			<path d="M157.753,25.402h1.152v7.92h4.566v1.037h-5.719V25.402z"/>
		</g>
	</g>
</g>
</svg>
