<?xml version="1.0" encoding="utf-8"?>
<!-- Generator: Adobe Illustrator 16.0.0, SVG Export Plug-In . SVG Version: 6.00 Build 0)  -->
<!DOCTYPE svg PUBLIC "-//W3C//DTD SVG 1.1//EN" "http://www.w3.org/Graphics/SVG/1.1/DTD/svg11.dtd">
<svg version="1.1" id="Layer_1" xmlns="http://www.w3.org/2000/svg" xmlns:xlink="http://www.w3.org/1999/xlink" x="0px" y="0px"
	 width="31.037px" height="17.633px" viewBox="0 0 31.037 17.633" enable-background="new 0 0 31.037 17.633" xml:space="preserve">
<g>
	<path fill="#FFFFFF" d="M16.613,8.307C16.613,3.727,12.887,0,8.307,0S0,3.727,0,8.307c0,4.581,3.727,8.307,8.307,8.307
		c1.086,0,2.122-0.211,3.074-0.592l1.256,1.611l2.677-2.088l-1.099-1.406C15.697,12.637,16.613,10.577,16.613,8.307z M3.666,8.307
		c0-2.559,2.082-4.641,4.641-4.641s4.641,2.082,4.641,4.641s-2.082,4.641-4.641,4.641S3.666,10.865,3.666,8.307z"/>
	<path fill="#FFFFFF" d="M26.107,4.082v12.882h-3.557V4.082l0,0V0.684h8.486v3.398H26.107z"/>
</g>
</svg>
