<?xml version="1.0" encoding="utf-8"?>
<!-- Generator: Adobe Illustrator 16.0.0, SVG Export Plug-In . SVG Version: 6.00 Build 0)  -->
<!DOCTYPE svg PUBLIC "-//W3C//DTD SVG 1.1//EN" "http://www.w3.org/Graphics/SVG/1.1/DTD/svg11.dtd">
<svg version="1.1" id="Layer_1" xmlns="http://www.w3.org/2000/svg" xmlns:xlink="http://www.w3.org/1999/xlink" x="0px" y="0px"
	 width="1024px" height="341.337px" viewBox="0 0 1024 341.337" enable-background="new 0 0 1024 341.337" xml:space="preserve">
<g>
	<rect width="1024" height="341.337"/>
	<g>
		<g>
			<defs>
				<rect id="SVGID_1_" width="1024" height="341.337"/>
			</defs>
			<clipPath id="SVGID_2_">
				<use xlink:href="#SVGID_1_"  overflow="visible"/>
			</clipPath>
			<path clip-path="url(#SVGID_2_)" fill="#FFFFFF" d="M1063.594,236.853l-283.998,0.084v-41.081
				c11.594-0.682,22.237-7.149,28.122-17.238c4.693-8.046,5.973-17.438,3.601-26.446c-2.369-9.008-8.106-16.554-16.152-21.247
				c-5.334-3.11-11.398-4.755-17.539-4.755c-12.373,0-23.927,6.632-30.154,17.308c-4.693,8.046-5.972,17.438-3.602,26.445
				c2.371,9.008,8.107,16.554,16.154,21.247c4.762,2.778,10.107,4.377,15.57,4.689v41.08l-380.89,0.113l-43.954-10.747
				l-42.932-46.476l-0.387-0.418L51.518,108.559l5.361-43.244l0.041-0.334L39.307-17.682l-3.912,0.834l17.473,82.004L28.159,264.472
				l-88.322,96.486l2.95,2.701l89.184-97.428l13.687-110.405l115.792,28.312l1.984,167.688l-128.365,63.9l1.782,3.58
				l358.086-178.255l668.659-0.199L1063.594,236.853z M46.154,151.83l4.867-39.259l254.249,70.391l38.448,41.623L46.154,151.83z
				 M167.411,349.847l-1.949-164.728l223.223,54.577L167.411,349.847z M762.042,187.714c-7.123-4.155-12.202-10.835-14.301-18.81
				c-2.1-7.975-0.967-16.289,3.188-23.412c5.514-9.452,15.744-15.323,26.699-15.323c5.434,0,10.801,1.456,15.523,4.21
				c7.123,4.155,12.202,10.835,14.301,18.811c2.099,7.975,0.967,16.289-3.188,23.412c-5.513,9.451-15.743,15.322-26.698,15.322
				C772.131,191.924,766.763,190.469,762.042,187.714z"/>
		</g>
		<g>
			<g>
				<g>
					<path fill="#FFFFFF" d="M199.91,101.117c1.256-0.004,2.016-0.709,2.189-1.742l-1.079,0.002
						c-0.127,0.506-0.549,0.754-1.113,0.755c-0.752,0.003-1.282-0.548-1.32-1.464l3.556-0.011l-0.001-0.421
						c-0.004-1.527-0.805-2.568-2.272-2.564c-1.421,0.004-2.438,1.18-2.433,2.741C197.441,100.021,198.453,101.121,199.91,101.117z
						 M199.885,96.656c0.716-0.002,1.082,0.515,1.096,1.148l-2.361,0.008C198.758,97.061,199.239,96.658,199.885,96.656z"/>
					<path fill="#FFFFFF" d="M204.412,100.986l-0.01-3.369c0.116-0.563,0.561-0.834,1.042-0.836
						c0.247-0.001,0.528,0.057,0.693,0.174l-0.004-1.208c-0.082-0.046-0.317-0.093-0.575-0.092c-0.505,0.001-0.962,0.272-1.16,0.661
						l-0.001-0.541l-1.173,0.004l0.016,5.211L204.412,100.986z"/>
					<path fill="#FFFFFF" d="M189.427,96.313l-0.001-0.493l-1.171,0.004l0.015,5.21l1.172-0.004l-0.01-3.427
						c0.128-0.518,0.585-0.836,1.09-0.837c0.67-0.002,0.988,0.42,0.99,1.065l0.01,3.192l1.171-0.003l-0.01-3.393
						c-0.003-1.15-0.662-1.934-1.848-1.93C190.224,95.7,189.708,95.983,189.427,96.313z"/>
					<path fill="#FFFFFF" d="M193.458,96.781l0.821-0.002l0.008,2.83c0.003,1.032,0.661,1.522,1.588,1.52
						c0.364-0.001,0.68-0.072,0.879-0.19l-0.003-1.067c-0.164,0.118-0.435,0.213-0.668,0.214c-0.387,0.001-0.623-0.187-0.624-0.608
						l-0.008-2.701l1.174-0.004l-0.003-0.973l-1.174,0.004l-0.004-1.396l-1.172,0.003l0.004,1.396l-0.821,0.003L193.458,96.781z"/>
					<path fill="#FFFFFF" d="M208.264,100.975l-0.01-3.368c0.116-0.563,0.561-0.835,1.042-0.837c0.247,0,0.528,0.058,0.693,0.174
						l-0.003-1.207c-0.083-0.047-0.317-0.094-0.575-0.093c-0.505,0.002-0.962,0.272-1.16,0.661l-0.001-0.54l-1.173,0.003
						l0.015,5.211L208.264,100.975z"/>
					<path fill="#FFFFFF" d="M215.335,98.197c-0.005-1.527-0.805-2.568-2.272-2.564c-1.421,0.004-2.438,1.18-2.434,2.741
						c0.005,1.608,1.017,2.708,2.473,2.704c1.256-0.004,2.016-0.709,2.188-1.742l-1.079,0.003c-0.127,0.505-0.549,0.753-1.113,0.754
						c-0.752,0.003-1.282-0.548-1.32-1.464l3.556-0.011L215.335,98.197z M211.812,97.773c0.138-0.752,0.619-1.154,1.265-1.156
						c0.716-0.002,1.081,0.515,1.095,1.148L211.812,97.773z"/>
					<polygon fill="#FFFFFF" points="218.163,102.941 220.888,95.727 219.679,95.73 218.352,99.572 216.98,95.738 215.725,95.742 
						217.758,101.088 217.025,102.944 					"/>
					<path fill="#FFFFFF" d="M184.698,95.717c-1.467,0.004-2.472,1.133-2.468,2.73c0.005,1.596,1.017,2.719,2.484,2.715
						c1.468-0.004,2.473-1.133,2.468-2.729C187.178,96.835,186.166,95.713,184.698,95.717z M184.711,100.153
						c-0.845,0.003-1.305-0.724-1.308-1.71s0.453-1.716,1.298-1.719c0.846-0.002,1.306,0.725,1.309,1.711
						S185.557,100.151,184.711,100.153z"/>
					<polygon fill="#FFFFFF" points="175.295,93.867 173.9,93.871 173.922,101.076 175.082,101.073 175.067,96.062 177.066,101.067 
						177.935,101.064 179.858,96.048 179.873,101.059 181.044,101.055 181.023,93.85 179.663,93.854 177.507,99.399 					"/>
					<polygon fill="#FFFFFF" points="185.17,86.104 185.167,85.014 181.658,85.024 181.652,82.957 184.833,82.948 184.83,81.881 
						181.648,81.891 181.643,79.988 185.152,79.978 185.149,78.898 180.443,78.913 180.465,86.118 					"/>
					<polygon fill="#FFFFFF" points="175.808,80.006 175.826,86.133 177.045,86.129 177.027,80.002 179.421,79.994 179.418,78.916 
						173.41,78.934 173.413,80.012 					"/>
					<path fill="#FFFFFF" d="M189.237,86.21c1.62-0.005,2.662-0.946,2.927-2.402l-1.197,0.004c-0.279,0.775-0.771,1.294-1.733,1.296
						c-1.28,0.004-2.046-1.108-2.05-2.611c-0.005-1.515,0.767-2.62,2.035-2.624c0.962-0.003,1.457,0.512,1.741,1.274l1.197-0.004
						c-0.274-1.443-1.31-2.378-2.941-2.373c-1.854,0.006-3.268,1.511-3.262,3.73C185.96,84.719,187.383,86.215,189.237,86.21z"/>
				</g>
				<path fill="#FFFFFF" d="M150.154,230.604l0.014,1.077c0.507,0.124,0.759,0.543,0.767,1.106c0.01,0.752-0.536,1.287-1.452,1.335
					l-0.046-3.557l-0.422,0.006c-1.526,0.02-2.559,0.83-2.54,2.298c0.019,1.421,1.204,2.426,2.767,2.405
					c1.607-0.021,2.697-1.043,2.678-2.5C151.903,231.52,151.19,230.767,150.154,230.604z M147.459,232.847
					c-0.009-0.717,0.503-1.089,1.138-1.108l0.03,2.361C147.874,233.968,147.468,233.49,147.459,232.847z"/>
				
					<rect x="144.822" y="281.66" transform="matrix(-0.9999 0.0133 -0.0133 -0.9999 301.0157 562.4879)" fill="#FFFFFF" width="7.627" height="1.172"/>
				<path fill="#FFFFFF" d="M152.776,307.216l-0.016-1.232l-2.005-0.714l-0.036-2.757l1.985-0.765l-0.016-1.243l-7.167,2.862
					l0.015,1.174L152.776,307.216z M149.669,302.926l0.026,1.971l-2.677-0.949L149.669,302.926z"/>
				<path fill="#FFFFFF" d="M149.775,277.016c1.597-0.021,2.709-1.045,2.69-2.512s-1.157-2.461-2.754-2.44
					c-1.597,0.021-2.709,1.044-2.69,2.511C147.041,276.043,148.178,277.036,149.775,277.016z M149.726,273.236
					c0.986-0.014,1.72,0.435,1.731,1.281c0.011,0.845-0.71,1.312-1.697,1.325c-0.986,0.013-1.72-0.436-1.731-1.28
					C148.018,273.717,148.74,273.249,149.726,273.236z"/>
				<polygon fill="#FFFFFF" points="153.87,238.318 146.629,235.666 146.646,236.875 150.5,238.162 146.68,239.573 146.696,240.829 
					152.021,238.74 153.885,239.455 				"/>
				<path fill="#FFFFFF" d="M152.556,290.41l-0.017-1.232l-2.004-0.714l-0.037-2.757l1.986-0.766l-0.017-1.244l-7.167,2.863
					l0.015,1.174L152.556,290.41z M149.449,286.12l0.026,1.97l-2.678-0.949L149.449,286.12z"/>
				<polygon fill="#FFFFFF" points="147.478,300.535 152.662,298.497 152.646,297.287 147.411,295.373 147.427,296.594 
					151.259,297.881 147.462,299.28 				"/>
				<path fill="#FFFFFF" d="M151.871,293.624c-0.458,0.007-0.804,0.362-0.799,0.808c0.006,0.446,0.363,0.794,0.82,0.787
					c0.458-0.006,0.804-0.362,0.798-0.808C152.685,293.965,152.329,293.618,151.871,293.624z"/>
				<path fill="#FFFFFF" d="M144.811,249.132l0.036,2.78l7.205-0.094l-0.016-1.219l-2.923,0.038l-0.011-0.868l2.896-2.047
					l-0.018-1.384l-2.941,2.127c-0.191-1.136-0.892-1.831-2.102-1.814C145.528,246.67,144.791,247.641,144.811,249.132z
					 M146.952,247.858c0.669-0.009,1.11,0.444,1.121,1.254l0.021,1.539l-2.208,0.028l-0.02-1.538
					C145.854,248.331,146.283,247.867,146.952,247.858z"/>
				<path fill="#FFFFFF" d="M148.532,265.449c0.857-0.011,1.249-0.567,1.416-1.309l0.245-1.084c0.1-0.436,0.25-0.614,0.531-0.617
					c0.411-0.006,0.627,0.344,0.634,0.885c0.006,0.516-0.211,0.906-0.644,1.041l0.016,1.196c1.007-0.167,1.605-1.019,1.589-2.239
					c-0.016-1.174-0.66-2.021-1.692-2.008c-0.763,0.01-1.263,0.463-1.462,1.357l-0.244,1.105c-0.089,0.378-0.239,0.544-0.475,0.548
					c-0.411,0.005-0.604-0.415-0.609-0.826c-0.007-0.54,0.224-0.849,0.562-0.96l-0.014-1.148c-0.949,0.188-1.525,0.887-1.509,2.109
					C146.892,264.639,147.594,265.462,148.532,265.449z"/>
				<path fill="#FFFFFF" d="M147.933,226.795l-0.015-1.148c-0.949,0.188-1.524,0.887-1.509,2.108
					c0.016,1.139,0.717,1.962,1.656,1.949c0.858-0.011,1.249-0.567,1.416-1.309l0.244-1.084c0.1-0.436,0.25-0.614,0.532-0.618
					c0.411-0.005,0.627,0.345,0.634,0.885c0.007,0.518-0.211,0.907-0.644,1.042l0.015,1.196c1.007-0.166,1.605-1.018,1.59-2.238
					c-0.016-1.175-0.659-2.021-1.692-2.008c-0.763,0.01-1.263,0.462-1.462,1.356l-0.244,1.106c-0.089,0.377-0.239,0.543-0.475,0.547
					c-0.411,0.005-0.604-0.416-0.609-0.826C147.363,227.214,147.593,226.905,147.933,226.795z"/>
				<path fill="#FFFFFF" d="M149.56,260.561c1.597-0.021,2.709-1.043,2.69-2.512c-0.019-1.467-1.158-2.461-2.755-2.439
					c-1.597,0.021-2.708,1.044-2.69,2.512C146.825,259.589,147.963,260.582,149.56,260.561z M149.511,256.781
					c0.986-0.013,1.72,0.436,1.731,1.282c0.011,0.846-0.711,1.312-1.697,1.325c-0.986,0.013-1.721-0.436-1.732-1.281
					S148.525,256.795,149.511,256.781z"/>
				<path fill="#FFFFFF" d="M147.077,269.847l0.016,1.173l5.209-0.068l-0.015-1.173l-3.427,0.046
					c-0.517-0.123-0.841-0.577-0.848-1.082c-0.009-0.669,0.41-0.992,1.056-1.001l3.192-0.042l-0.016-1.171l-3.391,0.044
					c-1.15,0.015-1.926,0.682-1.912,1.867c0.008,0.609,0.296,1.124,0.628,1.401L147.077,269.847z"/>
				<path fill="#FFFFFF" d="M149.622,244.744l-0.046-3.556l-0.422,0.005c-1.526,0.02-2.559,0.83-2.54,2.299
					c0.018,1.42,1.204,2.425,2.766,2.404c1.608-0.021,2.697-1.043,2.678-2.5c-0.016-1.256-0.729-2.009-1.766-2.171l0.015,1.078
					c0.507,0.123,0.759,0.543,0.766,1.105C151.084,244.161,150.539,244.697,149.622,244.744z M147.599,243.468
					c-0.009-0.717,0.503-1.088,1.138-1.108l0.03,2.361C148.013,244.589,147.607,244.113,147.599,243.468z"/>
				<path fill="#FFFFFF" d="M144.651,278.23c0.013,0.973,0.631,1.704,1.747,1.689l0.811-0.011l0.011,0.903l0.974-0.013l-0.012-0.903
					l4.236-0.057l-0.014-1.148l-4.238,0.057l-0.015-1.139l-0.972,0.013l0.016,1.138l-0.729,0.01
					c-0.517,0.007-0.802-0.282-0.809-0.753c-0.002-0.187,0.042-0.398,0.157-0.576l-1.032,0.013
					C144.69,277.666,144.646,277.891,144.651,278.23z"/>
				<path fill="#FFFFFF" d="M351.696,279.207c0.114,0.508-0.149,0.921-0.652,1.177c-0.669,0.342-1.391,0.091-1.839-0.71l3.167-1.617
					l-0.193-0.376c-0.694-1.359-1.88-1.926-3.186-1.258c-1.265,0.647-1.64,2.155-0.929,3.545c0.732,1.433,2.132,1.955,3.428,1.293
					c1.118-0.572,1.477-1.546,1.164-2.545L351.696,279.207z M349.451,277.295c0.639-0.327,1.199-0.032,1.498,0.527l-2.103,1.075
					C348.63,278.163,348.877,277.588,349.451,277.295z"/>
				<path fill="#FFFFFF" d="M365.213,270.717l-1.101,0.272c-0.377,0.087-0.593,0.026-0.701-0.184
					c-0.187-0.365,0.104-0.725,0.47-0.912c0.481-0.247,0.86-0.176,1.109,0.079l1.023-0.522c-0.589-0.767-1.471-0.974-2.559-0.417
					c-1.014,0.518-1.44,1.512-1.013,2.348c0.39,0.764,1.062,0.868,1.8,0.688l1.08-0.261c0.436-0.105,0.662-0.049,0.79,0.202
					c0.187,0.366-0.03,0.714-0.511,0.961c-0.461,0.235-0.908,0.213-1.22-0.116l-1.065,0.545c0.596,0.829,1.625,0.987,2.711,0.432
					c1.046-0.533,1.52-1.486,1.05-2.406C366.729,270.746,366.103,270.498,365.213,270.717z"/>
				<path fill="#FFFFFF" d="M343.769,276.509l1.303,2.551c-0.342-0.154-0.925-0.159-1.438,0.103
					c-1.359,0.694-1.591,2.195-0.913,3.524c0.683,1.338,2.032,2.019,3.39,1.323c0.514-0.262,0.85-0.736,0.927-1.104l0.203,0.396
					l1.044-0.533l-3.471-6.792L343.769,276.509z M346.503,281.86c0.01,0.456-0.26,0.911-0.688,1.13
					c-0.805,0.411-1.613,0.02-2.05-0.838c-0.438-0.857-0.284-1.741,0.521-2.152c0.429-0.219,0.954-0.172,1.319,0.104L346.503,281.86
					z"/>
				<path fill="#FFFFFF" d="M358.842,271.391c-0.953,0.485-1.379,1.453-1.108,2.318l1.002-0.513
					c-0.051-0.384,0.12-0.695,0.538-0.909c0.596-0.305,1.077-0.088,1.317,0.384l0.192,0.375c-0.257-0.038-0.803,0.055-1.221,0.269
					c-1.025,0.524-1.493,1.541-1.044,2.418c0.486,0.952,1.558,1.115,2.508,0.629c0.523-0.268,0.897-0.695,0.975-0.932l0.134,0.26
					l0.991-0.506l-1.554-3.04C361.032,271.087,360.013,270.791,358.842,271.391z M360.793,275.414
					c-0.471,0.241-1.064,0.293-1.305-0.178c-0.234-0.459,0.156-0.909,0.626-1.15c0.418-0.214,0.927-0.25,1.191-0.016l0.198,0.387
					C361.54,274.809,361.212,275.201,360.793,275.414z"/>
				<path fill="#FFFFFF" d="M354.279,273.722c-0.544,0.278-0.876,0.764-0.979,1.185l-0.223-0.438l-1.044,0.533l2.371,4.64
					l1.044-0.533l-1.56-3.052c-0.12-0.519,0.144-1.01,0.594-1.24c0.597-0.304,1.07-0.072,1.364,0.503l1.453,2.843l1.043-0.534
					l-1.542-3.021C356.276,273.583,355.334,273.182,354.279,273.722z"/>
				<path fill="#FFFFFF" d="M283.34,307.866l0.813,7.677l1.098-0.562l-0.25-2.112l2.455-1.255l1.567,1.44l1.107-0.566l-5.745-5.156
					L283.34,307.866z M286.62,310.855l-1.755,0.898l-0.334-2.822L286.62,310.855z"/>
				<polygon fill="#FFFFFF" points="300.21,306.112 297.427,300.666 296.342,301.222 299.621,307.637 303.79,305.508 
					303.294,304.536 				"/>
				<path fill="#FFFFFF" d="M294.856,308.348c-0.397,0.202-0.55,0.676-0.342,1.084c0.208,0.406,0.682,0.56,1.078,0.356
					c0.397-0.202,0.55-0.676,0.341-1.082C295.726,308.298,295.252,308.145,294.856,308.348z"/>
				<polygon fill="#FFFFFF" points="310.188,301.145 310.968,296.817 310.631,296.16 307.017,298.008 307.459,298.873 
					309.737,297.709 308.947,302.041 309.283,302.699 313.045,300.777 312.602,299.911 				"/>
				<path fill="#FFFFFF" d="M313.392,294.618c-0.952,0.485-1.38,1.454-1.109,2.317l1.003-0.512c-0.051-0.383,0.12-0.695,0.538-0.908
					c0.596-0.305,1.077-0.089,1.317,0.383l0.192,0.375c-0.258-0.039-0.803,0.055-1.222,0.269c-1.024,0.524-1.493,1.54-1.044,2.419
					c0.487,0.95,1.558,1.114,2.508,0.628c0.523-0.267,0.897-0.695,0.975-0.933l0.134,0.262l0.991-0.508l-1.554-3.041
					C315.582,294.314,314.563,294.02,313.392,294.618z M315.343,298.642c-0.471,0.241-1.064,0.294-1.305-0.177
					c-0.235-0.461,0.156-0.91,0.626-1.151c0.418-0.214,0.927-0.25,1.191-0.016l0.198,0.388
					C316.089,298.036,315.761,298.428,315.343,298.642z"/>
				<path fill="#FFFFFF" d="M304.123,299.354c-0.951,0.485-1.378,1.454-1.108,2.318l1.002-0.513c-0.05-0.383,0.12-0.695,0.539-0.908
					c0.595-0.305,1.075-0.088,1.316,0.383l0.192,0.375c-0.258-0.038-0.802,0.056-1.22,0.27c-1.025,0.523-1.494,1.539-1.045,2.418
					c0.486,0.95,1.558,1.114,2.509,0.629c0.522-0.268,0.897-0.695,0.973-0.933l0.134,0.261l0.991-0.507l-1.552-3.041
					C306.313,299.051,305.294,298.756,304.123,299.354z M306.074,303.379c-0.47,0.24-1.064,0.293-1.304-0.178
					c-0.235-0.461,0.155-0.91,0.625-1.151c0.418-0.214,0.927-0.25,1.192-0.015l0.198,0.387
					C306.82,302.772,306.493,303.164,306.074,303.379z"/>
				<path fill="#FFFFFF" d="M335.264,283.439c-0.952,0.486-1.378,1.455-1.108,2.318l1.003-0.512
					c-0.051-0.383,0.119-0.695,0.538-0.908c0.596-0.305,1.075-0.089,1.316,0.383l0.192,0.375c-0.257-0.039-0.803,0.057-1.221,0.27
					c-1.024,0.524-1.493,1.539-1.044,2.418c0.486,0.951,1.558,1.114,2.509,0.628c0.522-0.268,0.898-0.694,0.974-0.933l0.134,0.261
					l0.991-0.507l-1.553-3.039C337.454,283.137,336.435,282.842,335.264,283.439z M337.215,287.464
					c-0.471,0.241-1.064,0.294-1.304-0.177c-0.235-0.461,0.155-0.91,0.625-1.151c0.418-0.214,0.927-0.25,1.192-0.016l0.197,0.388
					C337.96,286.859,337.633,287.25,337.215,287.464z"/>
				<polygon fill="#FFFFFF" points="304.33,298.469 304.55,296.553 303.474,297.102 303.4,298.945 				"/>
				<path fill="#FFFFFF" d="M321.815,290.312c-1.307,0.668-1.693,2.129-0.967,3.551c0.727,1.422,2.137,1.966,3.444,1.298
					c1.307-0.668,1.692-2.13,0.966-3.552C324.531,290.188,323.122,289.645,321.815,290.312z M323.833,294.264
					c-0.752,0.385-1.492-0.055-1.941-0.934c-0.449-0.878-0.372-1.734,0.38-2.119c0.753-0.385,1.493,0.055,1.941,0.933
					S324.586,293.879,323.833,294.264z"/>
				<path fill="#FFFFFF" d="M340.805,281.871c0.22-0.113,0.498-0.188,0.697-0.158l-0.549-1.076
					c-0.095-0.004-0.325,0.062-0.556,0.179c-0.449,0.23-0.734,0.678-0.736,1.113l-0.244-0.479l-1.045,0.533l2.371,4.64l1.045-0.533
					l-1.533-3.001C340.102,282.534,340.376,282.09,340.805,281.871z"/>
				<path fill="#FFFFFF" d="M318.934,293.049c0.219-0.112,0.497-0.188,0.697-0.158l-0.549-1.075
					c-0.095-0.005-0.325,0.061-0.556,0.178c-0.449,0.229-0.734,0.679-0.736,1.114l-0.245-0.481l-1.044,0.534l2.371,4.639
					l1.043-0.533l-1.533-3C318.23,293.712,318.505,293.269,318.934,293.049z"/>
				<path fill="#FFFFFF" d="M332.87,288.09c0.102,0.818-0.102,1.502-0.959,1.94c-1.14,0.581-2.326-0.064-3.011-1.402
					c-0.688-1.349-0.501-2.684,0.627-3.261c0.858-0.438,1.532-0.202,2.13,0.35l1.066-0.545c-0.898-1.163-2.245-1.528-3.698-0.785
					c-1.65,0.843-2.231,2.825-1.221,4.801c1.01,1.977,2.956,2.668,4.608,1.824c1.442-0.738,1.946-2.048,1.523-3.467L332.87,288.09z"
					/>
				<polygon fill="#FFFFFF" points="291.302,306.038 291.847,310.043 288.91,307.261 287.792,307.832 291.918,311.574 
					292.994,311.023 292.39,305.482 				"/>
				<path fill="#FFFFFF" d="M319.369,235.148c-1.041-0.245-1.993,0.217-2.346,1.051l1.095,0.258c0.21-0.325,0.542-0.452,1-0.345
					c0.651,0.153,0.876,0.63,0.755,1.145l-0.096,0.411c-0.17-0.197-0.647-0.479-1.105-0.586c-1.12-0.264-2.135,0.208-2.361,1.168
					c-0.245,1.039,0.466,1.857,1.506,2.103c0.571,0.134,1.134,0.05,1.346-0.08l-0.067,0.285l1.084,0.255l0.783-3.324
					C321.235,236.334,320.648,235.449,319.369,235.148z M319.414,239.21c-0.201,0.29-0.704,0.377-1.162,0.27
					c-0.515-0.121-1.001-0.465-0.88-0.979c0.119-0.503,0.708-0.595,1.222-0.473c0.458,0.107,0.869,0.41,0.919,0.759L319.414,239.21z
					"/>
				<path fill="#FFFFFF" d="M280.507,225.998c-1.04-0.246-1.993,0.217-2.346,1.051l1.096,0.257c0.21-0.325,0.542-0.451,0.999-0.344
					c0.652,0.153,0.877,0.629,0.756,1.144l-0.096,0.411c-0.171-0.196-0.648-0.478-1.105-0.585c-1.12-0.264-2.134,0.207-2.361,1.168
					c-0.245,1.04,0.466,1.857,1.506,2.102c0.571,0.135,1.134,0.051,1.346-0.08l-0.067,0.285l1.083,0.256l0.783-3.323
					C282.374,227.184,281.787,226.299,280.507,225.998z M280.553,230.059c-0.202,0.291-0.705,0.377-1.162,0.27
					c-0.515-0.121-1.001-0.465-0.879-0.979c0.119-0.503,0.707-0.594,1.221-0.473c0.458,0.107,0.87,0.409,0.919,0.761
					L280.553,230.059z"/>
				<path fill="#FFFFFF" d="M274.696,223.711c0.937,0.22,1.292,0.812,1.4,1.633l1.187,0.279c0.054-1.459-0.724-2.605-2.335-2.984
					c-1.829-0.431-3.6,0.694-4.108,2.855c-0.509,2.158,0.562,3.953,2.449,4.397c1.713,0.403,3.274-0.543,3.731-2.485l0.129-0.548
					l-2.661-0.626l-0.239,1.015l1.53,0.36c-0.38,0.949-1.182,1.484-2.244,1.234c-1.303-0.308-1.847-1.582-1.498-3.066
					C272.388,224.289,273.451,223.418,274.696,223.711z"/>
				<path fill="#FFFFFF" d="M308.309,232.543c-1.041-0.244-1.992,0.219-2.345,1.052l1.096,0.259
					c0.209-0.325,0.541-0.453,0.998-0.345c0.652,0.153,0.878,0.629,0.757,1.144l-0.097,0.411c-0.17-0.197-0.648-0.479-1.105-0.585
					c-1.12-0.265-2.133,0.207-2.36,1.168c-0.244,1.039,0.465,1.857,1.505,2.102c0.572,0.135,1.135,0.051,1.347-0.08l-0.066,0.285
					l1.083,0.256l0.782-3.324C310.176,233.729,309.589,232.846,308.309,232.543z M308.354,236.605
					c-0.201,0.291-0.705,0.377-1.162,0.27c-0.514-0.12-1-0.465-0.879-0.979c0.118-0.503,0.708-0.594,1.221-0.473
					c0.458,0.108,0.869,0.409,0.919,0.76L308.354,236.605z"/>
				<path fill="#FFFFFF" d="M286.658,227.541c-0.069-0.062-0.287-0.162-0.539-0.223c-0.491-0.115-0.999,0.042-1.281,0.373
					l0.123-0.525l-1.142-0.268l-1.193,5.071l1.14,0.269l0.772-3.279c0.244-0.521,0.741-0.683,1.208-0.572
					c0.24,0.057,0.501,0.179,0.634,0.33L286.658,227.541z"/>
				<polygon fill="#FFFFFF" points="291.47,228.699 287.517,227.769 287.294,228.716 289.784,229.302 286.377,232.095 
					286.209,232.813 290.32,233.781 290.544,232.834 287.905,232.213 291.3,229.418 				"/>
				<path fill="#FFFFFF" d="M294.571,229.31c-1.04-0.246-1.991,0.217-2.345,1.051l1.096,0.257c0.209-0.324,0.542-0.451,0.999-0.344
					c0.652,0.153,0.877,0.629,0.756,1.144l-0.096,0.411c-0.171-0.196-0.649-0.477-1.105-0.585c-1.12-0.264-2.135,0.208-2.36,1.168
					c-0.246,1.04,0.465,1.857,1.505,2.102c0.572,0.135,1.135,0.051,1.347-0.08l-0.068,0.285l1.084,0.255l0.783-3.322
					C296.438,230.496,295.851,229.61,294.571,229.31z M294.617,233.37c-0.202,0.291-0.705,0.378-1.162,0.271
					c-0.515-0.121-1.001-0.466-0.879-0.98c0.118-0.502,0.706-0.594,1.221-0.472c0.458,0.106,0.869,0.409,0.919,0.759L294.617,233.37
					z"/>
				<path fill="#FFFFFF" d="M315.506,231.875l-0.657,2.787c-0.162-0.34-0.603-0.721-1.164-0.852
					c-1.485-0.35-2.635,0.644-2.976,2.096c-0.345,1.463,0.244,2.854,1.729,3.203c0.56,0.133,1.125-0.012,1.422-0.243l-0.102,0.434
					l1.14,0.269l1.749-7.425L315.506,231.875z M314.128,237.725c-0.288,0.354-0.788,0.526-1.257,0.416
					c-0.879-0.208-1.241-1.029-1.02-1.967c0.221-0.937,0.91-1.51,1.79-1.303c0.469,0.111,0.839,0.487,0.939,0.934L314.128,237.725z"
					/>
				<polygon fill="#FFFFFF" points="226.423,213.383 224.247,216.789 223.809,212.768 222.585,212.479 223.311,218.002 
					224.487,218.279 227.612,213.662 				"/>
				<polygon fill="#FFFFFF" points="234.299,214.296 237.715,215.1 237.962,214.05 233.382,212.971 231.731,219.985 
					236.312,221.063 236.561,220.002 233.145,219.197 233.618,217.186 236.714,217.915 236.959,216.877 233.863,216.147 				"/>
				<path fill="#FFFFFF" d="M227.638,217.442c-0.434-0.102-0.857,0.16-0.962,0.605c-0.104,0.445,0.157,0.868,0.592,0.97
					c0.433,0.103,0.856-0.159,0.961-0.604C228.333,217.968,228.072,217.545,227.638,217.442z"/>
				<path fill="#FFFFFF" d="M261.705,220.809c0.377,0.089,0.78-0.142,0.872-0.529c0.092-0.388-0.167-0.774-0.544-0.863
					c-0.376-0.088-0.779,0.143-0.871,0.529C261.069,220.334,261.329,220.721,261.705,220.809z"/>
				<path fill="#FFFFFF" d="M241.67,216.973l-0.785,3.336c-0.245,0.473-0.752,0.68-1.243,0.563
					c-0.652-0.153-0.853-0.635-0.705-1.264l0.731-3.107l-1.14-0.269l-0.778,3.302c-0.264,1.12,0.184,2.032,1.338,2.304
					c0.594,0.141,1.151-0.018,1.5-0.273l-0.113,0.479l1.141,0.269l1.194-5.07L241.67,216.973z"/>
				<path fill="#FFFFFF" d="M219.169,209.625l-4.347,6.378l1.2,0.283l1.176-1.773l2.685,0.632l0.262,2.111l1.211,0.285l-1.043-7.647
					L219.169,209.625z M217.817,213.574l1.571-2.367l0.348,2.819L217.817,213.574z"/>
				<path fill="#FFFFFF" d="M265.545,222.475c-1.429-0.338-2.668,0.527-3.034,2.082s0.357,2.881,1.786,3.218
					c1.428,0.336,2.667-0.528,3.034-2.083C267.697,224.137,266.974,222.811,265.545,222.475z M266.19,225.423
					c-0.226,0.96-0.839,1.563-1.662,1.37c-0.822-0.193-1.101-1.008-0.875-1.969c0.226-0.959,0.839-1.562,1.662-1.368
					C266.138,223.649,266.417,224.463,266.19,225.423z"/>
				<path fill="#FFFFFF" d="M257.877,220.669c-0.595-0.141-1.162,0.016-1.512,0.27l0.113-0.479l-1.141-0.268l-1.195,5.07l1.142,0.27
					l0.786-3.336c0.244-0.473,0.763-0.677,1.253-0.562c0.653,0.153,0.864,0.638,0.716,1.267l-0.731,3.107l1.141,0.269l0.777-3.302
					C259.49,221.855,259.031,220.94,257.877,220.669z"/>
				
					<rect x="260.325" y="221.576" transform="matrix(-0.9734 -0.2292 0.2292 -0.9734 463.5007 502.1889)" fill="#FFFFFF" width="1.172" height="5.209"/>
				<path fill="#FFFFFF" d="M252.1,219.309c-1.384-0.326-2.645,0.582-3.003,2.101c-0.369,1.566,0.361,2.87,1.778,3.204
					c1.223,0.288,2.125-0.223,2.533-1.188l-1.05-0.246c-0.242,0.461-0.71,0.604-1.258,0.476c-0.732-0.173-1.12-0.831-0.943-1.731
					l3.461,0.815l0.096-0.411C254.064,220.843,253.528,219.645,252.1,219.309z M252.684,221.641l-2.297-0.541
					c0.31-0.7,0.87-0.979,1.499-0.831C252.583,220.434,252.818,221.021,252.684,221.641z"/>
				<path fill="#FFFFFF" d="M247.409,218.758c-0.164-0.328-0.596-0.694-1.168-0.83c-1.497-0.352-2.643,0.68-2.958,2.017
					c-0.314,1.337,0.251,2.771,1.748,3.124c0.572,0.135,1.122-0.002,1.416-0.221l-0.054,0.229c-0.224,0.949-0.744,1.369-1.59,1.17
					c-0.629-0.148-0.962-0.528-0.944-1.115l-1.106-0.262c-0.136,1.139,0.539,2.008,1.83,2.312c1.349,0.317,2.567-0.202,2.971-1.917
					l1.095-4.648l-1.141-0.27L247.409,218.758z M246.701,221.762c-0.274,0.298-0.759,0.462-1.239,0.349
					c-0.881-0.207-1.228-0.988-1.015-1.893c0.212-0.902,0.871-1.447,1.752-1.239c0.48,0.113,0.841,0.475,0.955,0.864
					L246.701,221.762z"/>
				<path fill="#FFFFFF" d="M303.192,232.641l-1.156-0.573c-0.594-0.297-0.821-0.664-0.71-1.133
					c0.137-0.583,0.743-0.851,1.497-0.673c0.835,0.197,1.184,0.713,1.243,1.282l1.187,0.279c0.024-1.226-0.684-2.21-2.205-2.568
					c-1.417-0.333-2.597,0.328-2.875,1.517c-0.267,1.131,0.386,1.84,1.303,2.297l1.122,0.565c0.691,0.345,0.909,0.696,0.794,1.188
					c-0.154,0.651-0.782,0.914-1.605,0.719c-0.766-0.18-1.283-0.651-1.342-1.424l-1.21-0.286c-0.055,1.361,0.829,2.364,2.314,2.715
					c1.452,0.341,2.693-0.221,3.002-1.535C304.798,233.96,304.23,233.15,303.192,232.641z"/>
				<path fill="#FFFFFF" d="M476.019,257.115c-0.681-0.002-1.209,0.29-1.516,0.629l0.095-0.516l-1.173-0.002l-0.928,5.208
					l1.174,0.003l0.606-3.414c0.225-0.493,0.742-0.844,1.247-0.843c0.575,0.001,0.82,0.296,0.82,0.754
					c0,0.093-0.012,0.188-0.036,0.316l-0.56,3.191l1.173,0.003l0.595-3.391c0.023-0.141,0.036-0.27,0.036-0.399
					C477.554,257.775,477.016,257.117,476.019,257.115z"/>
				<path fill="#FFFFFF" d="M481.221,257.128c-1.738-0.005-2.821,1.564-2.824,3.114c-0.004,1.386,0.826,2.326,2.235,2.329
					c1.233,0.003,2.115-0.698,2.411-1.731l-1.173-0.003c-0.201,0.506-0.647,0.751-1.165,0.75c-0.775-0.002-1.161-0.52-1.159-1.343
					l0-0.129l3.58,0.009c0.06-0.305,0.107-0.656,0.108-0.891C483.237,257.965,482.536,257.131,481.221,257.128z M482.096,259.266
					l-2.384-0.006c0.236-0.646,0.719-1.149,1.459-1.147c0.599,0.002,0.938,0.448,0.937,1.001
					C482.108,259.16,482.108,259.195,482.096,259.266z"/>
				<path fill="#FFFFFF" d="M450.242,260.598c-0.225,0.492-0.754,0.891-1.27,0.889c-0.563-0.001-0.786-0.283-0.785-0.729
					c0-0.106,0.012-0.224,0.036-0.341l0.571-3.25l-1.174-0.003l-0.594,3.391c-0.023,0.141-0.036,0.282-0.036,0.411
					c-0.002,0.88,0.524,1.526,1.51,1.528c0.681,0.002,1.209-0.303,1.515-0.607l-0.095,0.493l1.173,0.003l0.928-5.208l-1.174-0.003
					L450.242,260.598z"/>
				<polygon fill="#FFFFFF" points="462.391,258.173 464.948,258.179 461.655,261.67 461.523,262.408 465.748,262.418 
					465.915,261.445 463.205,261.439 466.498,257.948 466.629,257.21 462.569,257.2 				"/>
				<path fill="#FFFFFF" d="M455.201,255.785l-1.174-0.002l-0.26,1.396l-0.844-0.002l-0.18,0.974l0.845,0.001l-0.535,2.829
					c-0.023,0.129-0.034,0.246-0.035,0.352c-0.002,0.786,0.536,1.174,1.345,1.176c0.364,0.001,0.692-0.068,0.916-0.186l0.19-1.066
					c-0.188,0.117-0.481,0.211-0.716,0.209c-0.329,0-0.516-0.13-0.516-0.435c0-0.106,0.012-0.165,0.024-0.247l0.499-2.629
					l1.15,0.003l0.178-0.973l-1.15-0.003L455.201,255.785z"/>
				<path fill="#FFFFFF" d="M459.08,257.074c-1.492-0.004-2.726,1.331-2.73,3.139c-0.003,1.351,0.803,2.303,2.235,2.306
					c1.492,0.004,2.726-1.331,2.73-3.14C461.318,258.029,460.512,257.078,459.08,257.074z M458.599,261.51
					c-0.693-0.002-1.079-0.531-1.077-1.295c0.003-1.221,0.639-2.134,1.544-2.133c0.693,0.003,1.079,0.531,1.077,1.295
					C460.14,260.598,459.504,261.512,458.599,261.51z"/>
				<path fill="#FFFFFF" d="M443.362,255.159l-4.101,7.195l1.256,0.003l1.107-1.992l2.758,0.006l0.371,1.997l1.22,0.003
					l-1.437-7.209L443.362,255.159z M442.202,259.311l1.485-2.66l0.498,2.666L442.202,259.311z"/>
				<path fill="#FFFFFF" d="M469.62,257.1c-1.491-0.003-2.725,1.331-2.729,3.139c-0.003,1.351,0.803,2.302,2.235,2.305
					c1.492,0.004,2.726-1.33,2.731-3.139C471.86,258.055,471.053,257.104,469.62,257.1z M469.14,261.535
					c-0.692-0.001-1.079-0.53-1.077-1.295c0.003-1.221,0.639-2.135,1.542-2.133c0.694,0.002,1.08,0.531,1.078,1.294
					C470.681,260.623,470.045,261.537,469.14,261.535z"/>
				<polygon fill="#FFFFFF" points="405.52,206.871 407.449,201.857 407.458,206.867 408.629,206.865 408.617,199.66 
					407.256,199.662 405.094,205.205 402.889,199.67 401.495,199.672 401.507,206.878 402.667,206.876 402.658,201.865 
					404.651,206.872 				"/>
				<path fill="#FFFFFF" d="M441.861,205.202c0.002,1.067,0.881,1.699,1.95,1.697c0.587-0.001,1.115-0.213,1.292-0.388l0,0.291
					l1.113-0.001l-0.006-3.415c-0.002-1.187-0.777-1.912-2.091-1.909c-1.069,0.001-1.889,0.671-2.04,1.564l1.126-0.002
					c0.128-0.365,0.422-0.565,0.892-0.565c0.669-0.002,1,0.409,1,0.938l0,0.423c-0.212-0.152-0.741-0.315-1.21-0.315
					C442.737,203.522,441.86,204.215,441.861,205.202z M445.101,204.984l0.001,0.436c-0.13,0.328-0.599,0.529-1.068,0.529
					c-0.528,0.001-1.082-0.221-1.082-0.749c-0.001-0.518,0.551-0.741,1.08-0.743C444.5,204.457,444.97,204.655,445.101,204.984z"/>
				<path fill="#FFFFFF" d="M432.017,204.068c-0.002-1.527-0.801-2.568-2.269-2.566c-1.421,0.002-2.439,1.177-2.437,2.738
					c0.002,1.608,1.013,2.709,2.469,2.707c1.256-0.002,2.017-0.707,2.191-1.74l-1.079,0.002c-0.128,0.505-0.55,0.752-1.114,0.753
					c-0.752,0.001-1.281-0.55-1.318-1.466l3.557-0.006L432.017,204.068z M428.495,203.641c0.14-0.753,0.62-1.152,1.267-1.154
					c0.716-0.001,1.081,0.516,1.093,1.15L428.495,203.641z"/>
				<path fill="#FFFFFF" d="M411.923,206.977c0.611,0,1.116-0.283,1.397-0.611l0.001,0.492l1.172-0.002l-0.009-5.211l-1.172,0.003
					l0.005,3.427c-0.128,0.518-0.574,0.835-1.08,0.836c-0.669,0-0.975-0.421-0.976-1.066l-0.005-3.193l-1.173,0.002l0.006,3.393
					C410.092,206.195,410.738,206.979,411.923,206.977z"/>
				<path fill="#FFFFFF" d="M423.668,206.957c0.61-0.001,1.115-0.283,1.396-0.611l0.001,0.492l1.172-0.002l-0.009-5.211
					l-1.172,0.002l0.006,3.428c-0.128,0.517-0.575,0.834-1.08,0.835c-0.67,0.001-0.976-0.421-0.977-1.066l-0.005-3.192l-1.171,0.002
					l0.005,3.393C421.837,206.175,422.483,206.959,423.668,206.957z"/>
				<path fill="#FFFFFF" d="M435.321,202.618c0.247-0.001,0.529,0.058,0.693,0.175l-0.001-1.208
					c-0.083-0.047-0.317-0.093-0.576-0.093c-0.505,0.001-0.962,0.271-1.161,0.659l0-0.54l-1.173,0.002l0.009,5.211l1.173-0.002
					l-0.006-3.369C434.395,202.89,434.84,202.619,435.321,202.618z"/>
				<path fill="#FFFFFF" d="M418.038,208.001c-0.646,0.001-1.057-0.292-1.175-0.868l-1.138,0.002c0.131,1.14,0.988,1.83,2.314,1.828
					c1.386-0.003,2.452-0.79,2.449-2.551l-0.008-4.777l-1.172,0.002l0,0.423c-0.235-0.281-0.741-0.539-1.328-0.538
					c-1.538,0.003-2.415,1.271-2.413,2.646c0.002,1.373,0.884,2.639,2.421,2.636c0.587-0.001,1.092-0.26,1.327-0.541l0,0.233
					C419.318,207.471,418.908,208,418.038,208.001z M418.187,205.771c-0.903,0.002-1.421-0.679-1.423-1.605
					c-0.002-0.929,0.514-1.61,1.417-1.612c0.494,0,0.929,0.27,1.129,0.621l0.003,1.973
					C419.115,205.499,418.681,205.77,418.187,205.771z"/>
				<polygon fill="#FFFFFF" points="436.792,206.817 441.016,206.811 441.014,205.838 438.304,205.842 440.961,202.339 
					440.96,201.6 436.9,201.607 436.902,202.58 439.46,202.576 436.792,206.079 				"/>
				<path fill="#FFFFFF" d="M413.688,189.313c-0.002-1.597-1.013-2.721-2.48-2.718c-1.468,0.002-2.474,1.129-2.471,2.726
					c0.002,1.598,1.012,2.722,2.48,2.719C412.685,192.037,413.691,190.91,413.688,189.313z M411.216,191.031
					c-0.846,0.002-1.305-0.725-1.307-1.712c-0.002-0.985,0.455-1.714,1.301-1.716c0.845-0.002,1.305,0.726,1.307,1.711
					C412.519,190.302,412.061,191.03,411.216,191.031z"/>
				<path fill="#FFFFFF" d="M466.456,187.592l0.822-0.002l0.004,2.83c0.002,1.032,0.66,1.523,1.586,1.521
					c0.364,0,0.681-0.07,0.88-0.188l-0.002-1.067c-0.164,0.117-0.434,0.212-0.668,0.213c-0.387,0-0.623-0.187-0.623-0.609
					l-0.004-2.701l1.173-0.002l-0.001-0.973l-1.174,0.002l-0.002-1.396l-1.173,0.002l0.002,1.396l-0.821,0.002L466.456,187.592z"/>
				<path fill="#FFFFFF" d="M463.805,190.989c-0.518,0.001-0.905-0.222-1.035-0.655l-1.196,0.002c0.154,1.009,1,1.617,2.221,1.615
					c1.174-0.002,2.028-0.637,2.026-1.67c-0.001-0.764-0.448-1.268-1.339-1.478l-1.104-0.256c-0.376-0.094-0.541-0.246-0.541-0.48
					c0-0.411,0.422-0.6,0.833-0.601c0.541,0,0.846,0.234,0.953,0.574l1.149-0.002c-0.178-0.95-0.87-1.535-2.091-1.533
					c-1.14,0.002-1.971,0.695-1.969,1.634c0.001,0.856,0.554,1.255,1.292,1.43l1.081,0.258c0.435,0.104,0.611,0.257,0.612,0.538
					C464.697,190.776,464.345,190.988,463.805,190.989z"/>
				<path fill="#FFFFFF" d="M424.672,189.295c-0.002-1.456-0.896-2.721-2.423-2.719c-0.575,0.001-1.091,0.271-1.325,0.564
					l-0.001-0.444l-1.172,0.002l0.012,7.206l1.173-0.003l-0.004-2.441c0.235,0.294,0.752,0.562,1.328,0.562
					C423.785,192.019,424.674,190.751,424.672,189.295z M420.929,190.287l-0.003-1.973c0.199-0.41,0.645-0.693,1.125-0.694
					c0.905-0.001,1.446,0.714,1.448,1.676c0.001,0.964-0.537,1.681-1.442,1.683C421.576,190.979,421.129,190.698,420.929,190.287z"
					/>
				<rect x="425.718" y="186.687" fill="#FFFFFF" width="1.173" height="5.211"/>
				<path fill="#FFFFFF" d="M426.296,184.398c-0.387,0-0.726,0.318-0.725,0.716c0,0.399,0.341,0.716,0.728,0.715
					c0.387-0.001,0.727-0.318,0.727-0.718C427.024,184.714,426.684,184.397,426.296,184.398z"/>
				<path fill="#FFFFFF" d="M478.381,190.965c-0.517,0-0.904-0.222-1.034-0.656l-1.196,0.002c0.154,1.01,1,1.617,2.22,1.615
					c1.175-0.002,2.028-0.637,2.027-1.669c-0.001-0.764-0.447-1.268-1.338-1.478l-1.105-0.257c-0.376-0.093-0.542-0.245-0.542-0.48
					c0-0.411,0.423-0.599,0.833-0.6c0.541-0.001,0.847,0.233,0.953,0.573l1.149-0.002c-0.178-0.95-0.87-1.535-2.092-1.533
					c-1.139,0.002-1.97,0.695-1.968,1.635c0.001,0.856,0.553,1.254,1.292,1.43l1.08,0.257c0.436,0.104,0.612,0.258,0.612,0.539
					C479.273,190.752,478.922,190.963,478.381,190.965z"/>
				<path fill="#FFFFFF" d="M416.61,192.031c1.175-0.002,2.03-0.637,2.028-1.67c-0.001-0.764-0.448-1.268-1.339-1.477l-1.105-0.257
					c-0.375-0.093-0.54-0.245-0.541-0.48c-0.001-0.411,0.422-0.599,0.832-0.6c0.541-0.001,0.847,0.233,0.953,0.573l1.149-0.002
					c-0.178-0.95-0.87-1.535-2.091-1.533c-1.139,0.002-1.97,0.695-1.969,1.635c0.002,0.856,0.553,1.254,1.293,1.43l1.081,0.257
					c0.435,0.104,0.611,0.257,0.611,0.539c0.001,0.411-0.351,0.622-0.892,0.624c-0.517,0-0.904-0.223-1.034-0.656l-1.196,0.002
					C414.545,191.426,415.39,192.033,416.61,192.031z"/>
				<path fill="#FFFFFF" d="M459.941,184.341c-0.386,0.001-0.726,0.318-0.725,0.716c0.001,0.399,0.341,0.716,0.728,0.715
					c0.388,0,0.728-0.318,0.727-0.717C460.67,184.656,460.329,184.34,459.941,184.341z"/>
				<rect x="437.537" y="184.249" fill="#FFFFFF" width="1.173" height="7.628"/>
				<path fill="#FFFFFF" d="M448.654,189.583l-1.197,0.002c-0.28,0.775-0.772,1.293-1.735,1.294
					c-1.279,0.002-2.044-1.111-2.046-2.614c-0.003-1.515,0.77-2.619,2.038-2.621c0.962-0.002,1.456,0.514,1.739,1.276l1.197-0.002
					c-0.272-1.443-1.307-2.38-2.938-2.377c-1.854,0.004-3.271,1.507-3.268,3.725c0.004,2.22,1.426,3.719,3.28,3.716
					C447.343,191.979,448.386,191.039,448.654,189.583z"/>
				<path fill="#FFFFFF" d="M452.002,187.593c0.669-0.001,0.987,0.421,0.988,1.066l0.005,3.192l1.173-0.002l-0.006-3.393
					c-0.002-1.15-0.66-1.934-1.845-1.932c-0.612,0.001-1.127,0.283-1.409,0.611l-0.004-2.91l-1.173,0.002l0.013,7.629l1.173-0.002
					l-0.006-3.428C451.039,187.911,451.497,187.594,452.002,187.593z"/>
				<path fill="#FFFFFF" d="M427.735,187.658l0.822-0.002l0.005,2.83c0.002,1.031,0.659,1.523,1.586,1.521
					c0.364,0,0.681-0.071,0.88-0.189l-0.001-1.066c-0.164,0.117-0.434,0.212-0.669,0.212c-0.387,0.001-0.622-0.187-0.623-0.609
					l-0.004-2.7l1.173-0.002l-0.001-0.974l-1.174,0.002l-0.002-1.396l-1.172,0.002l0.002,1.397l-0.821,0.001L427.735,187.658z"/>
				<rect x="459.364" y="186.63" fill="#FFFFFF" width="1.173" height="5.21"/>
				<path fill="#FFFFFF" d="M457.727,187.642c0.247-0.001,0.528,0.058,0.693,0.175l-0.002-1.208
					c-0.082-0.046-0.317-0.093-0.575-0.093c-0.505,0.001-0.962,0.271-1.161,0.658l-0.001-0.539l-1.172,0.002l0.009,5.211
					l1.173-0.002l-0.006-3.369C456.8,187.913,457.246,187.643,457.727,187.642z"/>
				<path fill="#FFFFFF" d="M436.192,188.466c-0.002-1.187-0.777-1.912-2.092-1.909c-1.069,0.002-1.888,0.671-2.04,1.562
					l1.125-0.001c0.129-0.364,0.423-0.564,0.893-0.565c0.669-0.001,0.999,0.409,1,0.938l0,0.423
					c-0.213-0.152-0.741-0.316-1.21-0.314c-1.151,0.001-2.028,0.694-2.027,1.681c0.001,1.069,0.881,1.7,1.95,1.698
					c0.587-0.001,1.115-0.213,1.292-0.39l0,0.294l1.113-0.002L436.192,188.466z M434.015,191.028
					c-0.528,0.001-1.082-0.222-1.083-0.751c-0.001-0.516,0.552-0.74,1.08-0.74c0.47-0.002,0.94,0.197,1.07,0.526l0,0.435
					C434.954,190.827,434.484,191.027,434.015,191.028z"/>
				<path fill="#FFFFFF" d="M472.837,190.868c-0.67,0.001-0.976-0.421-0.977-1.066l-0.005-3.192l-1.172,0.002l0.006,3.393
					c0.002,1.15,0.648,1.934,1.833,1.932c0.61-0.001,1.115-0.283,1.397-0.612l0.001,0.493l1.171-0.002l-0.009-5.211l-1.171,0.002
					l0.006,3.428C473.789,190.55,473.342,190.867,472.837,190.868z"/>
				<polygon fill="#FFFFFF" points="402.688,184.732 401.469,184.733 401.481,191.939 402.7,191.938 402.695,188.78 
					406.323,188.773 406.329,191.932 407.548,191.93 407.536,184.724 406.316,184.726 406.321,187.695 402.693,187.701 				"/>
				<g>
					<path fill="#FFFFFF" d="M679.842,221.021c0.006-1.526-0.787-2.573-2.254-2.579c-1.421-0.006-2.445,1.162-2.453,2.723
						c-0.006,1.609,0.997,2.716,2.453,2.723c1.256,0.005,2.021-0.695,2.202-1.727l-1.079-0.005c-0.131,0.504-0.555,0.75-1.119,0.747
						c-0.752-0.004-1.277-0.559-1.309-1.475l3.557,0.016L679.842,221.021z M676.323,220.572c0.145-0.752,0.627-1.148,1.273-1.146
						c0.717,0.004,1.078,0.522,1.087,1.156L676.323,220.572z"/>
					<path fill="#FFFFFF" d="M707.666,224.018c1.243,0.006,2.032-0.693,2.19-1.737l-1.174-0.005
						c-0.096,0.469-0.484,0.726-1.002,0.723c-0.785-0.003-1.264-0.722-1.259-1.708c0.005-0.985,0.487-1.7,1.275-1.697
						c0.517,0.003,0.901,0.262,0.994,0.733l1.173,0.005c-0.146-1.046-0.932-1.753-2.176-1.759c-1.408-0.006-2.432,1.092-2.439,2.712
						C705.243,222.906,706.256,224.012,707.666,224.018z"/>
					<path fill="#FFFFFF" d="M704.218,223.885l0.015-3.413c0.006-1.187-0.765-1.917-2.079-1.923c-1.069-0.004-1.894,0.66-2.05,1.551
						l1.126,0.006c0.131-0.364,0.425-0.562,0.896-0.56c0.67,0.003,0.996,0.415,0.994,0.944l-0.002,0.422
						c-0.211-0.153-0.738-0.319-1.209-0.321c-1.15-0.005-2.031,0.683-2.035,1.668c-0.006,1.069,0.87,1.705,1.938,1.71
						c0.589,0.002,1.118-0.207,1.295-0.381l-0.001,0.293L704.218,223.885z M702.04,223.021c-0.528-0.003-1.08-0.229-1.078-0.758
						c0.003-0.517,0.557-0.737,1.085-0.734c0.47,0.001,0.938,0.203,1.066,0.533l-0.002,0.435
						C702.981,222.824,702.51,223.022,702.04,223.021z"/>
					<path fill="#FFFFFF" d="M662.38,218.492l-0.023,5.211l1.173,0.005l0.014-3.368c0.12-0.564,0.568-0.832,1.049-0.829
						c0.247,0.001,0.528,0.061,0.691,0.179l0.006-1.208c-0.081-0.047-0.316-0.095-0.574-0.097c-0.506-0.002-0.964,0.267-1.166,0.652
						l0.002-0.54L662.38,218.492z"/>
					<path fill="#FFFFFF" d="M658.528,218.477l-0.022,5.209l1.171,0.006l0.016-3.369c0.121-0.563,0.566-0.832,1.049-0.828
						c0.246,0,0.527,0.061,0.691,0.179l0.006-1.208c-0.083-0.047-0.316-0.096-0.575-0.097c-0.505-0.002-0.964,0.266-1.165,0.652
						l0.003-0.54L658.528,218.477z"/>
					<path fill="#FFFFFF" d="M720.319,220.528c0.131-0.517,0.592-0.831,1.096-0.829c0.67,0.004,0.984,0.427,0.982,1.073
						l-0.014,3.192l1.172,0.005l0.016-3.392c0.004-1.15-0.648-1.938-1.834-1.943c-0.611-0.002-1.129,0.276-1.412,0.603l0.002-0.491
						l-1.172-0.006l-0.023,5.211l1.172,0.005L720.319,220.528z"/>
					<path fill="#FFFFFF" d="M711.485,217.85c0.387,0.002,0.728-0.314,0.729-0.713c0.001-0.398-0.338-0.717-0.725-0.719
						s-0.729,0.314-0.73,0.712C710.758,217.529,711.097,217.848,711.485,217.85z"/>
					<path fill="#FFFFFF" d="M688.836,223.818l0.015-3.414c0.005-1.187-0.766-1.917-2.08-1.922
						c-1.069-0.006-1.894,0.659-2.048,1.551l1.124,0.005c0.131-0.364,0.426-0.562,0.896-0.56c0.67,0.002,0.996,0.415,0.994,0.944
						l-0.002,0.423c-0.211-0.154-0.738-0.32-1.208-0.322c-1.151-0.005-2.032,0.683-2.037,1.669c-0.005,1.067,0.872,1.704,1.94,1.71
						c0.586,0.002,1.116-0.207,1.293-0.383l-0.001,0.294L688.836,223.818z M686.657,222.953c-0.527-0.002-1.08-0.228-1.076-0.756
						c0.002-0.518,0.555-0.738,1.083-0.735c0.47,0.002,0.938,0.202,1.066,0.532l-0.001,0.436
						C687.598,222.758,687.126,222.956,686.657,222.953z"/>
					<path fill="#FFFFFF" d="M715.577,224.053c1.467,0.006,2.48-1.115,2.488-2.712c0.006-1.597-0.996-2.727-2.465-2.732
						c-1.469-0.007-2.48,1.113-2.486,2.71C713.106,222.916,714.109,224.047,715.577,224.053z M715.596,219.615
						c0.845,0.004,1.301,0.734,1.296,1.72c-0.005,0.987-0.466,1.714-1.312,1.71s-1.301-0.734-1.296-1.721
						C714.29,220.339,714.75,219.612,715.596,219.615z"/>
					
						<rect x="710.882" y="218.707" transform="matrix(-1 -0.005 0.005 -1 1421.823 446.1755)" fill="#FFFFFF" width="1.173" height="5.21"/>
					<path fill="#FFFFFF" d="M649.118,217.424c0.962,0.004,1.451,0.523,1.73,1.287l1.197,0.006
						c-0.264-1.445-1.292-2.388-2.924-2.395c-1.855-0.009-3.279,1.486-3.289,3.705c-0.01,2.22,1.402,3.727,3.257,3.734
						c1.619,0.007,2.668-0.926,2.944-2.38l-1.197-0.006c-0.285,0.774-0.779,1.288-1.743,1.284c-1.279-0.005-2.037-1.125-2.03-2.627
						C647.069,218.519,647.849,217.418,649.118,217.424z"/>
					<path fill="#FFFFFF" d="M673.554,223.869c0.363,0.002,0.681-0.067,0.881-0.184l0.005-1.066
						c-0.166,0.115-0.436,0.209-0.67,0.208c-0.389-0.003-0.621-0.19-0.619-0.613l0.011-2.701l1.174,0.006l0.005-0.974l-1.174-0.006
						l0.006-1.396L672,217.138l-0.006,1.397l-0.821-0.004l-0.004,0.973l0.821,0.004l-0.013,2.83
						C671.972,223.369,672.627,223.865,673.554,223.869z"/>
					
						<rect x="727.06" y="219.602" transform="matrix(0.0044 -1 1 0.0044 507.5073 950.0972)" fill="#FFFFFF" width="7.628" height="1.172"/>
					<path fill="#FFFFFF" d="M657.163,223.68l0.015-3.414c0.005-1.187-0.765-1.916-2.081-1.923
						c-1.068-0.004-1.892,0.661-2.049,1.552l1.127,0.006c0.131-0.364,0.425-0.562,0.895-0.561c0.67,0.003,0.996,0.416,0.994,0.944
						l-0.002,0.423c-0.21-0.154-0.738-0.32-1.208-0.322c-1.15-0.005-2.033,0.682-2.036,1.67c-0.006,1.067,0.871,1.703,1.939,1.709
						c0.587,0.002,1.116-0.206,1.294-0.382l-0.002,0.293L657.163,223.68z M654.983,222.815c-0.527-0.003-1.079-0.229-1.077-0.757
						c0.003-0.518,0.557-0.738,1.085-0.735c0.469,0.002,0.938,0.204,1.066,0.533l-0.003,0.435
						C655.924,222.619,655.454,222.817,654.983,222.815z"/>
					<polygon fill="#FFFFFF" points="694.067,216.636 692.918,216.631 692.887,223.836 694.059,223.842 694.083,218.596 
						697.745,223.857 698.682,223.861 698.714,216.656 697.543,216.651 697.52,221.65 					"/>
					<path fill="#FFFFFF" d="M670.62,220.981c0.006-1.526-0.785-2.573-2.252-2.58c-1.421-0.006-2.446,1.161-2.453,2.723
						c-0.008,1.609,0.996,2.716,2.452,2.723c1.257,0.005,2.021-0.694,2.201-1.728l-1.078-0.004
						c-0.131,0.504-0.556,0.749-1.118,0.746c-0.752-0.003-1.279-0.557-1.309-1.475l3.555,0.016L670.62,220.981z M667.101,220.533
						c0.145-0.753,0.627-1.15,1.273-1.146c0.716,0.003,1.078,0.521,1.088,1.155L667.101,220.533z"/>
					<path fill="#FFFFFF" d="M726.617,220.698c-1.151-0.005-2.032,0.683-2.036,1.669c-0.005,1.068,0.871,1.705,1.939,1.71
						c0.588,0.003,1.117-0.206,1.294-0.382l-0.001,0.293l1.113,0.005l0.015-3.415c0.006-1.186-0.765-1.916-2.08-1.922
						c-1.068-0.004-1.894,0.66-2.048,1.552l1.125,0.006c0.131-0.364,0.425-0.562,0.896-0.561c0.669,0.003,0.997,0.416,0.994,0.944
						l-0.001,0.423C727.616,220.867,727.087,220.701,726.617,220.698z M727.819,222.604c-0.131,0.328-0.602,0.526-1.072,0.524
						c-0.527-0.003-1.078-0.228-1.076-0.757c0.002-0.518,0.555-0.738,1.084-0.735c0.469,0.002,0.938,0.203,1.066,0.533
						L727.819,222.604z"/>
					<path fill="#FFFFFF" d="M680.942,218.573l-0.022,5.211l1.172,0.005l0.015-3.368c0.12-0.563,0.566-0.832,1.049-0.829
						c0.246,0.001,0.527,0.061,0.691,0.179l0.006-1.207c-0.082-0.048-0.316-0.096-0.575-0.097c-0.505-0.002-0.964,0.266-1.165,0.651
						l0.002-0.539L680.942,218.573z"/>
				</g>
				<path fill="#FFFFFF" d="M370.824,57.768c1.257-0.009,2.014-0.718,2.183-1.752l-1.079,0.008c-0.126,0.506-0.546,0.756-1.111,0.76
					c-0.751,0.006-1.283-0.543-1.325-1.459l3.556-0.026l-0.003-0.421c-0.011-1.527-0.815-2.563-2.284-2.553
					c-1.419,0.01-2.431,1.189-2.42,2.751C368.353,56.685,369.369,57.778,370.824,57.768z M370.78,53.308
					c0.717-0.005,1.085,0.51,1.101,1.145l-2.36,0.017C369.657,53.716,370.135,53.312,370.78,53.308z"/>
				
					<rect x="420.188" y="52.864" transform="matrix(0.0072 1 -1 0.0072 474.3839 -370.9273)" fill="#FFFFFF" width="7.628" height="1.172"/>
				
					<rect x="420.863" y="52.073" transform="matrix(-1 0.0075 -0.0075 -1 843.2973 106.1958)" fill="#FFFFFF" width="1.173" height="5.21"/>
				<path fill="#FFFFFF" d="M417.162,56.399c-0.786,0.006-1.399-0.33-1.639-1.068l-1.243,0.009c0.268,1.336,1.364,2.102,2.89,2.091
					c1.492-0.011,2.564-0.851,2.555-2.201c-0.008-1.079-0.752-1.731-1.88-1.981l-1.259-0.284c-0.646-0.148-0.954-0.451-0.958-0.933
					c-0.004-0.6,0.521-1.002,1.295-1.008c0.858-0.006,1.318,0.413,1.511,0.953l1.219-0.01c-0.267-1.195-1.187-1.985-2.749-1.974
					c-1.456,0.011-2.445,0.931-2.437,2.152c0.008,1.162,0.81,1.696,1.809,1.924l1.223,0.284c0.753,0.171,1.049,0.462,1.052,0.967
					C418.557,55.99,418.008,56.394,417.162,56.399z"/>
				<path fill="#FFFFFF" d="M421.425,51.214c0.386-0.003,0.724-0.321,0.722-0.72c-0.003-0.399-0.346-0.713-0.732-0.71
					c-0.387,0.003-0.725,0.321-0.722,0.72C420.695,50.903,421.038,51.217,421.425,51.214z"/>
				
					<rect x="422.741" y="52.845" transform="matrix(0.0073 1 -1 0.0073 476.873 -373.5023)" fill="#FFFFFF" width="7.628" height="1.172"/>
				<path fill="#FFFFFF" d="M428.23,55.626c0.008,1.067,0.892,1.694,1.959,1.687c0.588-0.004,1.115-0.219,1.29-0.396l0.002,0.292
					l1.114-0.008l-0.025-3.413c-0.009-1.187-0.788-1.908-2.102-1.898c-1.069,0.008-1.885,0.682-2.031,1.575l1.125-0.009
					c0.126-0.364,0.418-0.567,0.889-0.57c0.669-0.005,1.001,0.404,1.005,0.934l0.003,0.422c-0.212-0.151-0.742-0.311-1.212-0.308
					C429.097,53.942,428.223,54.64,428.23,55.626z M431.468,55.391l0.003,0.435c-0.127,0.331-0.595,0.533-1.064,0.537
					c-0.529,0.004-1.083-0.216-1.086-0.744c-0.004-0.518,0.546-0.745,1.075-0.749C430.865,54.866,431.336,55.062,431.468,55.391z"/>
				<path fill="#FFFFFF" d="M406.441,55.784c0.008,1.068,0.892,1.694,1.96,1.687c0.588-0.004,1.115-0.218,1.289-0.396l0.002,0.292
					l1.114-0.008l-0.025-3.413c-0.008-1.187-0.787-1.908-2.103-1.898c-1.068,0.008-1.884,0.682-2.03,1.575l1.126-0.009
					c0.126-0.364,0.418-0.567,0.888-0.57c0.67-0.005,1.001,0.404,1.005,0.934l0.003,0.422c-0.212-0.151-0.742-0.311-1.212-0.308
					C407.309,54.101,406.435,54.798,406.441,55.784z M409.679,55.55l0.003,0.434c-0.126,0.331-0.594,0.534-1.065,0.537
					c-0.528,0.004-1.081-0.216-1.085-0.744c-0.004-0.518,0.546-0.745,1.075-0.748C409.077,55.024,409.548,55.221,409.679,55.55z"/>
				<path fill="#FFFFFF" d="M392.25,57.611c0.576-0.004,1.09-0.276,1.323-0.571l0.003,0.444l1.173-0.008l-0.056-7.627l-1.172,0.008
					l0.021,2.863c-0.237-0.292-0.755-0.557-1.332-0.553c-1.526,0.011-2.408,1.248-2.397,2.739
					C389.824,56.411,390.724,57.623,392.25,57.611z M392.419,53.209c0.481-0.004,0.929,0.274,1.131,0.686l0.015,1.972
					c-0.197,0.413-0.641,0.698-1.122,0.701c-0.905,0.007-1.45-0.706-1.457-1.669C390.979,53.937,391.514,53.216,392.419,53.209z"/>
				<path fill="#FFFFFF" d="M379.178,57.59l-0.024-3.369c0.113-0.564,0.557-0.837,1.038-0.841c0.247-0.002,0.529,0.055,0.694,0.171
					l-0.009-1.207c-0.083-0.046-0.317-0.091-0.576-0.089c-0.505,0.003-0.96,0.275-1.157,0.664l-0.004-0.539l-1.171,0.009
					l0.038,5.209L379.178,57.59z"/>
				<path fill="#FFFFFF" d="M384.035,57.672c1.467-0.011,2.467-1.144,2.456-2.74c-0.011-1.598-1.028-2.715-2.495-2.704
					c-1.469,0.011-2.469,1.143-2.457,2.74C381.55,56.564,382.567,57.682,384.035,57.672z M384.003,53.234
					c0.845-0.006,1.308,0.72,1.315,1.706c0.007,0.985-0.445,1.718-1.291,1.724c-0.846,0.006-1.309-0.719-1.316-1.705
					C382.705,53.973,383.157,53.241,384.003,53.234z"/>
				<path fill="#FFFFFF" d="M375.327,57.617l-0.024-3.368c0.113-0.564,0.557-0.838,1.038-0.841c0.247-0.002,0.529,0.055,0.694,0.171
					l-0.009-1.207c-0.082-0.046-0.317-0.092-0.575-0.09c-0.505,0.004-0.961,0.276-1.158,0.665l-0.004-0.539l-1.171,0.009
					l0.038,5.209L375.327,57.617z"/>
				<path fill="#FFFFFF" d="M364.625,57.812c1.62-0.012,2.658-0.957,2.917-2.415l-1.197,0.009c-0.276,0.778-0.766,1.298-1.728,1.305
					c-1.279,0.01-2.05-1.101-2.061-2.604c-0.011-1.514,0.755-2.624,2.023-2.633c0.962-0.007,1.459,0.506,1.746,1.268l1.198-0.009
					c-0.281-1.441-1.32-2.372-2.952-2.36c-1.854,0.014-3.263,1.524-3.247,3.744C361.341,56.336,362.771,57.826,364.625,57.812z"/>
				
					<rect x="400.951" y="53.004" transform="matrix(0.0072 1 -1 0.0072 455.4274 -351.5525)" fill="#FFFFFF" width="7.629" height="1.173"/>
				<path fill="#FFFFFF" d="M398.292,57.567c1.257-0.009,2.014-0.718,2.183-1.752l-1.079,0.008
					c-0.125,0.506-0.546,0.757-1.111,0.761c-0.751,0.006-1.284-0.543-1.325-1.46l3.556-0.025l-0.003-0.422
					c-0.011-1.526-0.816-2.563-2.283-2.553c-1.42,0.011-2.432,1.19-2.421,2.752C395.821,56.484,396.837,57.578,398.292,57.567z
					 M398.249,53.107c0.717-0.005,1.085,0.51,1.101,1.145l-2.36,0.018C397.125,53.516,397.603,53.112,398.249,53.107z"/>
				<g>
					<path fill="#FFFFFF" d="M790.577,256.309c-1.492-0.003-2.727,1.33-2.73,3.139c-0.003,1.35,0.805,2.301,2.236,2.305
						c1.49,0.004,2.725-1.33,2.729-3.138C792.815,257.263,792.008,256.312,790.577,256.309z M790.096,260.744
						c-0.693-0.001-1.079-0.531-1.077-1.295c0.003-1.221,0.639-2.135,1.544-2.133c0.692,0.002,1.078,0.53,1.076,1.295
						C791.637,259.832,791,260.747,790.096,260.744z"/>
					<path fill="#FFFFFF" d="M770.78,256.262c-1.491-0.004-2.726,1.329-2.73,3.138c-0.003,1.35,0.804,2.302,2.236,2.305
						c1.49,0.004,2.726-1.33,2.73-3.138C773.018,257.215,772.212,256.265,770.78,256.262z M770.299,260.697
						c-0.693-0.002-1.079-0.532-1.077-1.295c0.003-1.221,0.64-2.136,1.544-2.134c0.692,0.002,1.078,0.53,1.076,1.295
						C771.84,259.784,771.204,260.699,770.299,260.697z"/>
					<path fill="#FFFFFF" d="M767.258,259.304l-1.209-0.003c-0.354,0.809-0.884,1.29-1.846,1.288
						c-1.127-0.003-1.806-0.909-1.803-2.165c0.004-1.597,0.84-3.074,2.402-3.07c0.856,0.002,1.336,0.531,1.499,1.283l1.208,0.003
						c-0.137-1.444-1.121-2.384-2.705-2.388c-2.242-0.006-3.631,2.078-3.636,4.169c-0.005,1.961,1.247,3.265,3.03,3.269
						C765.739,261.693,766.856,260.758,767.258,259.304z"/>
					<path fill="#FFFFFF" d="M780.929,257.375l1.15,0.003l0.179-0.972l-1.15-0.002l0.262-1.396l-1.174-0.003l-0.262,1.396
						l-0.844-0.002l-0.179,0.973l0.844,0.001l-0.534,2.829c-0.023,0.129-0.035,0.246-0.035,0.353
						c-0.002,0.786,0.535,1.173,1.346,1.175c0.363,0.001,0.692-0.068,0.916-0.186l0.189-1.066c-0.188,0.118-0.48,0.211-0.716,0.211
						c-0.329-0.001-0.517-0.131-0.515-0.437c0-0.106,0.012-0.164,0.023-0.247L780.929,257.375z"/>
					<path fill="#FFFFFF" d="M776.132,256.274c-1.163-0.003-2.044,0.744-2.046,1.718c-0.002,0.8,0.466,1.164,1.157,1.354
						l0.928,0.261c0.376,0.105,0.504,0.247,0.503,0.518c0,0.422-0.4,0.633-0.965,0.632c-0.469-0.001-0.914-0.179-0.996-0.696
						l-1.148-0.002c0.08,0.95,0.817,1.655,2.131,1.659c1.163,0.003,2.114-0.651,2.117-1.767c0.002-0.669-0.373-1.104-1.205-1.354
						l-0.951-0.283c-0.305-0.095-0.422-0.236-0.422-0.46c0.002-0.388,0.377-0.621,0.896-0.62c0.552,0.002,0.821,0.271,0.89,0.612
						l1.115,0.003C778.054,256.947,777.434,256.277,776.132,256.274z"/>
					<path fill="#FFFFFF" d="M785.25,257.314c0.482,0.002,0.786,0.272,0.844,0.73l1.162,0.003c-0.057-1.067-0.759-1.749-1.979-1.752
						c-1.667-0.004-2.761,1.529-2.765,3.103c-0.004,1.421,0.861,2.337,2.152,2.341c1.186,0.003,2.068-0.651,2.353-1.742
						l-1.162-0.003c-0.177,0.457-0.565,0.728-1.093,0.727c-0.682-0.002-1.068-0.521-1.065-1.319
						C783.7,258.381,784.207,257.312,785.25,257.314z"/>
				</g>
				<path fill="#FFFFFF" d="M526.128,201.059c0.821-0.003,1.315,0.465,1.389,1.039l1.185-0.004c-0.099-1.244-0.98-2.072-2.577-2.066
					c-1.503,0.006-2.567,0.994-2.562,2.32c0.004,0.998,0.615,1.477,1.448,1.709l1.153,0.324c0.657,0.186,0.881,0.455,0.883,0.842
					c0.003,0.799-0.629,1.212-1.499,1.215c-0.739,0.003-1.386-0.358-1.505-1.156l-1.198,0.004c0.123,1.455,1.218,2.189,2.707,2.185
					c1.433-0.005,2.685-0.901,2.679-2.392c-0.003-0.927-0.591-1.454-1.52-1.721l-1.188-0.336c-0.588-0.162-0.775-0.443-0.777-0.843
					C524.744,201.475,525.329,201.062,526.128,201.059z"/>
				<path fill="#FFFFFF" d="M545.291,207.28l0.585-3.417c0.023-0.117,0.035-0.234,0.033-0.354c-0.002-0.915-0.673-1.557-1.799-1.553
					c-1.115,0.004-1.994,0.675-2.308,1.568l1.139-0.005c0.21-0.341,0.526-0.564,1.031-0.567c0.564-0.001,0.8,0.291,0.802,0.691
					c0,0.082-0.012,0.164-0.023,0.246l-0.08,0.423c-0.211-0.175-0.672-0.313-1.164-0.312c-1.223,0.005-2.332,0.747-2.328,1.887
					c0.004,0.962,0.814,1.498,1.777,1.495c0.587-0.003,1.043-0.216,1.254-0.393l-0.045,0.294L545.291,207.28z M543.245,206.432
					c-0.48,0.002-0.951-0.185-0.953-0.618c-0.002-0.611,0.654-0.872,1.219-0.874c0.469-0.002,0.893,0.195,0.965,0.524l-0.08,0.436
					C544.208,206.229,543.715,206.43,543.245,206.432z"/>
				<path fill="#FFFFFF" d="M541.137,200.511c-0.001-0.397-0.343-0.714-0.73-0.712c-0.386,0.001-0.725,0.319-0.724,0.717
					c0.001,0.4,0.343,0.715,0.729,0.714S541.139,200.91,541.137,200.511z"/>
				<path fill="#FFFFFF" d="M549.934,207.263l1.172-0.004l0.574-3.395c0.023-0.141,0.034-0.271,0.034-0.399
					c-0.003-0.88-0.546-1.534-1.542-1.53c-0.682,0.003-1.208,0.298-1.512,0.638l0.092-0.516l-1.174,0.004l-0.896,5.215l1.174-0.005
					l0.586-3.417c0.221-0.494,0.736-0.849,1.241-0.85c0.575-0.003,0.823,0.289,0.824,0.747c0.001,0.095-0.011,0.188-0.034,0.317
					L549.934,207.263z"/>
				<path fill="#FFFFFF" d="M535.679,202.104l-0.896,5.214l1.172-0.004l0.575-3.371c0.222-0.564,0.713-0.836,1.194-0.838
					c0.246-0.001,0.504,0.057,0.656,0.174l0.207-1.209c-0.07-0.047-0.293-0.092-0.552-0.092c-0.503,0.002-1.019,0.274-1.276,0.661
					l0.092-0.539L535.679,202.104z"/>
				<path fill="#FFFFFF" d="M529.165,205.156c0.004,1.351,0.816,2.297,2.248,2.292c1.492-0.006,2.718-1.347,2.711-3.155
					c-0.005-1.35-0.816-2.297-2.248-2.292C530.383,202.007,529.158,203.348,529.165,205.156z M532.952,204.297
					c0.005,1.222-0.627,2.14-1.53,2.143c-0.694,0.003-1.083-0.523-1.085-1.287c-0.006-1.222,0.627-2.14,1.53-2.143
					C532.559,203.008,532.95,203.534,532.952,204.297z"/>
				<path fill="#FFFFFF" d="M556.507,207.239l0.585-3.417c0.023-0.117,0.034-0.234,0.033-0.354c-0.002-0.916-0.673-1.557-1.8-1.553
					c-1.116,0.004-1.993,0.675-2.308,1.568l1.139-0.005c0.21-0.341,0.525-0.565,1.031-0.567c0.564-0.002,0.8,0.291,0.801,0.691
					c0.001,0.082-0.011,0.164-0.021,0.246l-0.081,0.423c-0.212-0.175-0.671-0.314-1.165-0.312c-1.221,0.005-2.332,0.747-2.327,1.887
					c0.003,0.962,0.814,1.498,1.776,1.495c0.588-0.003,1.045-0.216,1.256-0.393l-0.046,0.294L556.507,207.239z M554.461,206.391
					c-0.482,0.002-0.952-0.185-0.953-0.618c-0.003-0.612,0.653-0.872,1.217-0.874c0.471-0.002,0.895,0.195,0.966,0.524l-0.081,0.436
					C555.423,206.188,554.931,206.389,554.461,206.391z"/>
				<polygon fill="#FFFFFF" points="538.651,207.305 539.826,207.3 540.72,202.086 539.547,202.091 				"/>
				<g>
					<polygon fill="#FFFFFF" points="537.901,279.047 542.607,279.058 542.797,277.968 539.29,277.96 539.657,275.894 
						542.837,275.901 543.028,274.835 539.848,274.827 540.193,272.925 543.702,272.934 543.892,271.855 539.186,271.844 					"/>
					<path fill="#FFFFFF" d="M549.829,273.57c0.003-1.08-0.746-1.703-2.107-1.706l-2.523-0.006l-1.285,7.202l2.759,0.007
						c1.55,0.004,2.817-0.778,2.821-2.282c0.002-0.668-0.326-1.197-0.899-1.398C549.25,275.166,549.827,274.487,549.829,273.57z
						 M546.827,278.013l-1.55-0.004l0.38-2.112l1.551,0.004c0.738,0.001,1.09,0.331,1.089,0.883
						C548.294,277.523,547.73,278.015,546.827,278.013z M547.163,274.892l-1.326-0.003l0.356-1.973l1.327,0.003
						c0.762,0.002,1.113,0.25,1.112,0.813C548.63,274.531,548.067,274.894,547.163,274.892z"/>
					<polygon fill="#FFFFFF" points="535.739,274.806 532.114,274.797 532.649,271.828 531.428,271.825 530.143,279.028 
						531.364,279.031 531.922,275.875 535.548,275.884 534.989,279.039 536.209,279.043 537.495,271.84 536.274,271.837 					"/>
				</g>
				<g>
					<path fill="#FFFFFF" d="M855.631,224.33l0.024-5.681l-1.171-0.005l-0.025,5.599c-0.002,0.492-0.203,0.726-0.648,0.725
						c-0.117-0.001-0.271-0.024-0.352-0.048l-0.005,0.984c0.117,0.047,0.352,0.06,0.47,0.061
						C855.049,225.969,855.627,225.362,855.631,224.33z"/>
					<path fill="#FFFFFF" d="M855.073,217.788c0.389,0.002,0.729-0.313,0.73-0.711c0.003-0.399-0.336-0.718-0.723-0.719
						c-0.387-0.002-0.729,0.312-0.73,0.712C854.348,217.469,854.687,217.787,855.073,217.788z"/>
					<polygon fill="#FFFFFF" points="825.966,216.524 825.934,223.729 830.616,223.75 830.622,222.66 827.159,222.645 
						827.184,216.53 					"/>
					<path fill="#FFFFFF" d="M833.493,220.478c-1.15-0.005-2.033,0.683-2.037,1.669c-0.005,1.068,0.872,1.705,1.939,1.71
						c0.588,0.003,1.117-0.206,1.294-0.382l-0.001,0.293l1.113,0.005l0.016-3.414c0.006-1.187-0.766-1.917-2.08-1.923
						c-1.068-0.004-1.894,0.66-2.049,1.553l1.125,0.005c0.131-0.364,0.426-0.563,0.896-0.561c0.669,0.003,0.997,0.415,0.995,0.944
						l-0.002,0.423C834.491,220.646,833.962,220.48,833.493,220.478z M834.694,222.384c-0.131,0.328-0.602,0.526-1.071,0.524
						c-0.528-0.003-1.079-0.229-1.077-0.757c0.003-0.518,0.556-0.738,1.084-0.735c0.469,0.002,0.938,0.203,1.066,0.533
						L834.694,222.384z"/>
					<path fill="#FFFFFF" d="M846.854,217.752c0.387,0.002,0.729-0.312,0.73-0.712c0.002-0.397-0.337-0.716-0.724-0.718
						c-0.388-0.002-0.729,0.312-0.729,0.712C846.129,217.433,846.467,217.751,846.854,217.752z"/>
					<rect x="846.253" y="218.611" fill="#FFFFFF" width="1.172" height="5.21"/>
					<path fill="#FFFFFF" d="M841.084,220.873l0.868,0.004l1.996,2.932l1.384,0.006l-2.076-2.979
						c1.14-0.171,1.846-0.859,1.852-2.069c0.006-1.408-0.952-2.163-2.443-2.169l-2.781-0.013l-0.031,7.205l1.219,0.006
						L841.084,220.873z M841.098,217.646l1.539,0.006c0.81,0.005,1.266,0.441,1.264,1.11c-0.003,0.669-0.464,1.102-1.273,1.099
						l-1.539-0.007L841.098,217.646z"/>
					<path fill="#FFFFFF" d="M850.947,223.956c1.469,0.007,2.481-1.114,2.487-2.711c0.008-1.598-0.996-2.728-2.463-2.733
						c-1.468-0.007-2.48,1.114-2.488,2.711C848.477,222.82,849.479,223.949,850.947,223.956z M850.966,219.519
						c0.847,0.005,1.302,0.734,1.296,1.722c-0.004,0.985-0.465,1.712-1.311,1.707c-0.846-0.003-1.301-0.732-1.297-1.719
						C849.661,220.242,850.122,219.516,850.966,219.519z"/>
					<path fill="#FFFFFF" d="M858.713,220.588c-1.151-0.006-2.033,0.683-2.037,1.669c-0.006,1.068,0.871,1.704,1.939,1.71
						c0.588,0.001,1.116-0.207,1.294-0.382l-0.001,0.293l1.113,0.005l0.015-3.414c0.005-1.188-0.765-1.916-2.079-1.922
						c-1.07-0.006-1.894,0.659-2.049,1.551l1.125,0.005c0.131-0.363,0.426-0.562,0.895-0.56c0.67,0.003,0.998,0.416,0.994,0.943
						l-0.002,0.424C859.71,220.756,859.182,220.59,858.713,220.588z M859.915,222.494c-0.131,0.328-0.602,0.526-1.071,0.524
						c-0.528-0.003-1.08-0.229-1.077-0.757c0.002-0.518,0.555-0.738,1.084-0.735c0.47,0.001,0.939,0.202,1.066,0.533
						L859.915,222.494z"/>
				</g>
				<g>
					<path fill="#FFFFFF" d="M942.244,203.475l1.139,0.003c0.212-0.34,0.529-0.562,1.035-0.561c0.563,0.001,0.798,0.296,0.796,0.695
						c0,0.082-0.012,0.164-0.023,0.246l-0.083,0.423c-0.211-0.177-0.669-0.318-1.163-0.32c-1.221-0.003-2.336,0.733-2.339,1.871
						c-0.002,0.963,0.806,1.505,1.769,1.507c0.586,0.002,1.045-0.208,1.258-0.384l-0.049,0.293l1.127,0.003l0.605-3.413
						c0.024-0.117,0.037-0.234,0.037-0.354c0.002-0.915-0.664-1.562-1.791-1.563C943.444,201.918,942.563,202.584,942.244,203.475z
						 M944.821,205.865c-0.188,0.328-0.682,0.526-1.152,0.525c-0.48-0.002-0.95-0.19-0.949-0.625
						c0.002-0.611,0.659-0.868,1.223-0.866c0.471,0.001,0.893,0.201,0.963,0.53L944.821,205.865z"/>
					<path fill="#FFFFFF" d="M938.684,202.023l-0.927,5.209l1.173,0.002l0.595-3.367c0.224-0.562,0.718-0.831,1.198-0.83
						c0.246,0,0.504,0.06,0.656,0.178l0.215-1.207c-0.07-0.048-0.293-0.096-0.552-0.096c-0.503-0.001-1.021,0.268-1.28,0.653
						l0.096-0.539L938.684,202.023z"/>
					<path fill="#FFFFFF" d="M934.516,207.342c1.232,0.003,2.115-0.698,2.409-1.731l-1.173-0.003c-0.2,0.505-0.646,0.75-1.163,0.75
						c-0.776-0.003-1.162-0.52-1.16-1.342v-0.13l3.581,0.009c0.059-0.306,0.106-0.656,0.107-0.891
						c0.002-1.269-0.698-2.103-2.014-2.106c-1.737-0.004-2.818,1.565-2.822,3.114C932.278,206.398,933.108,207.338,934.516,207.342z
						 M935.055,202.883c0.599,0.001,0.939,0.448,0.938,1.001c0,0.047,0,0.082-0.012,0.152l-2.385-0.006
						C933.833,203.385,934.316,202.881,935.055,202.883z"/>
					<polygon fill="#FFFFFF" points="922.562,206.104 919.053,206.097 919.422,204.03 922.602,204.038 922.793,202.972 
						919.613,202.964 919.958,201.062 923.466,201.07 923.657,199.992 918.952,199.981 917.667,207.184 922.372,207.195 					"/>
					<path fill="#FFFFFF" d="M925.101,204.948l0.928,0.261c0.376,0.107,0.505,0.248,0.503,0.518c0,0.424-0.4,0.634-0.965,0.632
						c-0.469-0.001-0.914-0.178-0.994-0.694l-1.15-0.003c0.08,0.95,0.817,1.655,2.131,1.659c1.163,0.002,2.114-0.651,2.117-1.767
						c0.002-0.67-0.373-1.104-1.205-1.354l-0.951-0.284c-0.305-0.095-0.422-0.235-0.421-0.459c0.001-0.387,0.377-0.621,0.895-0.619
						c0.552,0.001,0.821,0.271,0.891,0.611l1.114,0.004c-0.08-0.904-0.701-1.574-2.002-1.577c-1.164-0.003-2.045,0.745-2.047,1.72
						C923.942,204.394,924.411,204.758,925.101,204.948z"/>
					<path fill="#FFFFFF" d="M928.935,207.211l1.15,0.002l0.749-4.234l1.138,0.002l0.179-0.973l-1.139-0.003l0.131-0.716
						c0.096-0.54,0.437-0.797,0.941-0.796c0.176,0,0.375,0.048,0.504,0.142l0.189-1.02c-0.198-0.095-0.457-0.143-0.75-0.143
						c-0.975-0.002-1.82,0.594-2.021,1.719l-0.143,0.812L928.959,202l-0.179,0.973l0.903,0.003L928.935,207.211z"/>
				</g>
				<g>
					<path fill="#FFFFFF" d="M886.795,279.655l-1.173-0.003l-0.261,1.396l-0.845-0.002l-0.179,0.973l0.844,0.003l-0.533,2.828
						c-0.023,0.129-0.035,0.246-0.036,0.352c-0.002,0.785,0.536,1.175,1.345,1.177c0.363,0.001,0.693-0.069,0.916-0.187l0.19-1.066
						c-0.188,0.117-0.481,0.21-0.717,0.21c-0.329-0.001-0.516-0.131-0.515-0.436c0-0.106,0.012-0.164,0.023-0.247l0.5-2.629
						l1.149,0.003l0.179-0.973l-1.15-0.003L886.795,279.655z"/>
					<path fill="#FFFFFF" d="M854.417,280.856c-1.737-0.004-2.82,1.565-2.824,3.114c-0.003,1.387,0.827,2.326,2.236,2.329
						c1.232,0.003,2.113-0.698,2.41-1.731l-1.173-0.002c-0.2,0.505-0.648,0.75-1.165,0.749c-0.774-0.002-1.162-0.52-1.16-1.342
						l0.001-0.129l3.581,0.009c0.059-0.306,0.105-0.656,0.106-0.891C856.432,281.693,855.731,280.859,854.417,280.856z
						 M855.292,282.994l-2.384-0.005c0.236-0.646,0.719-1.149,1.459-1.147c0.6,0.001,0.938,0.447,0.938,1.001
						C855.304,282.89,855.305,282.924,855.292,282.994z"/>
					<path fill="#FFFFFF" d="M848.854,281.91c0.482,0.001,0.681,0.283,0.68,0.729c0,0.105-0.012,0.223-0.049,0.411l-0.547,3.12
						l1.174,0.003l0.594-3.391c0.024-0.141,0.036-0.281,0.037-0.41c0.002-0.834-0.479-1.526-1.521-1.529
						c-0.634-0.001-1.198,0.303-1.551,0.699c-0.188-0.362-0.668-0.704-1.255-0.705c-0.646-0.002-1.081,0.29-1.386,0.629l0.095-0.516
						l-1.175-0.002l-0.928,5.207l1.174,0.004l0.607-3.414c0.225-0.493,0.636-0.844,1.094-0.843c0.48,0.001,0.68,0.283,0.679,0.729
						c0,0.105-0.013,0.223-0.048,0.41l-0.547,3.121l1.174,0.003l0.605-3.414C847.985,282.26,848.397,281.909,848.854,281.91z"/>
					<path fill="#FFFFFF" d="M875.834,280.908c-0.576-0.002-1.116,0.291-1.41,0.629l0.095-0.515l-1.174-0.003l-1.285,7.202
						l1.174,0.003l0.44-2.452c0.188,0.294,0.645,0.577,1.312,0.579c1.609,0.003,2.809-1.378,2.812-3.151
						C877.802,281.897,877.137,280.911,875.834,280.908z M874.943,285.307c-0.552-0.001-0.938-0.283-1.066-0.694l0.333-1.878
						c0.283-0.41,0.719-0.785,1.328-0.783c0.693,0.002,1.091,0.53,1.089,1.246C876.624,284.408,875.988,285.31,874.943,285.307z"/>
					<path fill="#FFFFFF" d="M881.322,280.921c-1.491-0.003-2.726,1.331-2.729,3.139c-0.004,1.351,0.803,2.302,2.234,2.306
						c1.492,0.004,2.727-1.33,2.73-3.14C883.56,281.876,882.753,280.925,881.322,280.921z M880.841,285.357
						c-0.693-0.002-1.079-0.531-1.077-1.295c0.002-1.221,0.639-2.135,1.543-2.133c0.693,0.002,1.08,0.53,1.078,1.293
						C882.382,284.445,881.745,285.359,880.841,285.357z"/>
					<path fill="#FFFFFF" d="M863.26,279l-2.266-0.006l-1.285,7.203l2.465,0.006c2.547,0.006,4.1-1.867,4.104-4.146
						C866.284,280.133,865.243,279.005,863.26,279z M862.319,285.112l-1.197-0.002l0.904-5.034l1.079,0.002
						c1.326,0.003,1.946,0.744,1.943,1.977C865.044,283.816,864.067,285.117,862.319,285.112z"/>
					<path fill="#FFFFFF" d="M869.78,280.894c-1.738-0.004-2.82,1.564-2.824,3.114c-0.004,1.386,0.826,2.326,2.236,2.329
						c1.232,0.003,2.113-0.698,2.408-1.731l-1.172-0.002c-0.201,0.505-0.648,0.75-1.164,0.749c-0.775-0.002-1.162-0.52-1.16-1.342
						v-0.13l3.58,0.01c0.06-0.306,0.107-0.656,0.108-0.892C871.795,281.73,871.094,280.896,869.78,280.894z M870.655,283.031
						l-2.384-0.005c0.236-0.646,0.72-1.149,1.46-1.147c0.598,0.001,0.938,0.447,0.936,1
						C870.667,282.926,870.667,282.961,870.655,283.031z"/>
					<path fill="#FFFFFF" d="M837.417,283.96c-0.004,1.351,0.803,2.303,2.236,2.306c1.49,0.004,2.725-1.33,2.729-3.139
						c0.003-1.35-0.804-2.301-2.235-2.305C838.655,280.818,837.42,282.152,837.417,283.96z M841.209,283.125
						c-0.003,1.221-0.639,2.135-1.543,2.133c-0.693-0.002-1.079-0.531-1.078-1.295c0.004-1.221,0.64-2.135,1.545-2.132
						C840.825,281.832,841.211,282.361,841.209,283.125z"/>
					<polygon fill="#FFFFFF" points="835.764,286.14 837.049,278.938 835.829,278.934 835.293,281.902 831.668,281.894 
						832.204,278.925 830.983,278.922 829.698,286.125 830.918,286.128 831.477,282.972 835.103,282.98 834.543,286.137 					"/>
				</g>
				<g>
					<path fill="#FFFFFF" d="M919.227,257.42c-1.117-0.003-1.998,0.663-2.317,1.556l1.139,0.003c0.212-0.342,0.53-0.563,1.035-0.562
						c0.563,0.002,0.798,0.296,0.796,0.695c0,0.082-0.012,0.165-0.023,0.247l-0.083,0.422c-0.211-0.177-0.669-0.318-1.161-0.319
						c-1.223-0.003-2.338,0.732-2.34,1.872c-0.003,0.963,0.805,1.504,1.768,1.506c0.588,0.001,1.045-0.209,1.258-0.383l-0.049,0.292
						l1.127,0.003l0.605-3.413c0.024-0.117,0.037-0.234,0.037-0.353C921.02,258.068,920.354,257.423,919.227,257.42z
						 M919.487,261.364c-0.188,0.328-0.682,0.526-1.152,0.525c-0.48-0.001-0.95-0.19-0.949-0.624
						c0.002-0.611,0.66-0.868,1.225-0.867c0.469,0.002,0.891,0.202,0.961,0.531L919.487,261.364z"/>
					<path fill="#FFFFFF" d="M959.516,257.517c-0.682-0.001-1.21,0.29-1.516,0.631l0.095-0.517l-1.174-0.003l-0.928,5.208
						l1.174,0.003l0.606-3.414c0.225-0.493,0.742-0.844,1.246-0.843c0.575,0.002,0.821,0.296,0.82,0.754
						c0,0.094-0.013,0.188-0.036,0.316l-0.56,3.191l1.174,0.003l0.594-3.391c0.023-0.141,0.036-0.271,0.036-0.399
						C961.05,258.178,960.514,257.52,959.516,257.517z"/>
					<path fill="#FFFFFF" d="M953.342,257.502c-1.738-0.004-2.821,1.566-2.824,3.114c-0.004,1.386,0.826,2.326,2.235,2.329
						c1.233,0.004,2.114-0.697,2.409-1.73l-1.172-0.002c-0.201,0.504-0.648,0.75-1.164,0.748c-0.775-0.002-1.162-0.52-1.16-1.342
						v-0.129l3.58,0.008c0.06-0.305,0.107-0.655,0.107-0.891C955.358,258.339,954.657,257.505,953.342,257.502z M954.217,259.641
						l-2.384-0.006c0.235-0.646,0.72-1.149,1.459-1.148c0.599,0.002,0.938,0.449,0.937,1.001
						C954.229,259.535,954.229,259.57,954.217,259.641z"/>
					<path fill="#FFFFFF" d="M929.635,257.445c-1.115-0.003-1.998,0.663-2.316,1.556l1.139,0.003
						c0.211-0.342,0.529-0.564,1.033-0.562c0.564,0.001,0.799,0.295,0.799,0.695c-0.001,0.082-0.013,0.164-0.025,0.246l-0.082,0.423
						c-0.211-0.177-0.669-0.319-1.162-0.319c-1.222-0.004-2.338,0.732-2.34,1.872c-0.002,0.962,0.805,1.503,1.768,1.506
						c0.587,0.001,1.047-0.209,1.258-0.384l-0.047,0.292l1.125,0.003l0.607-3.413c0.023-0.117,0.035-0.234,0.035-0.353
						C931.428,258.094,930.761,257.447,929.635,257.445z M929.896,261.39c-0.188,0.328-0.683,0.526-1.152,0.525
						c-0.481-0.001-0.95-0.19-0.949-0.624c0.001-0.612,0.659-0.868,1.223-0.867c0.47,0.001,0.893,0.202,0.962,0.53L929.896,261.39z"
						/>
					<polygon fill="#FFFFFF" points="922.243,258.518 924.8,258.523 921.506,262.015 921.375,262.753 925.6,262.763 
						925.767,261.791 923.057,261.784 926.35,258.293 926.481,257.555 922.421,257.545 					"/>
					<path fill="#FFFFFF" d="M964.669,257.529c-1.116-0.003-1.998,0.663-2.315,1.556l1.137,0.003
						c0.213-0.342,0.531-0.563,1.035-0.562c0.563,0.001,0.798,0.295,0.797,0.695c0,0.082-0.012,0.164-0.023,0.247l-0.084,0.422
						c-0.211-0.177-0.668-0.318-1.161-0.319c-1.222-0.004-2.337,0.732-2.341,1.872c-0.002,0.963,0.806,1.503,1.769,1.505
						c0.587,0.002,1.046-0.208,1.258-0.383l-0.048,0.293l1.127,0.002l0.605-3.413c0.023-0.117,0.036-0.234,0.036-0.352
						C966.462,258.178,965.796,257.531,964.669,257.529z M964.93,261.474c-0.188,0.328-0.682,0.526-1.152,0.525
						c-0.481-0.001-0.951-0.19-0.949-0.624c0.001-0.611,0.659-0.869,1.224-0.867c0.47,0.001,0.892,0.202,0.961,0.53L964.93,261.474z
						"/>
					<path fill="#FFFFFF" d="M943.83,257.479c-1.738-0.004-2.821,1.566-2.825,3.115c-0.003,1.386,0.827,2.326,2.236,2.329
						c1.232,0.003,2.113-0.698,2.41-1.73l-1.174-0.003c-0.2,0.504-0.646,0.75-1.164,0.749c-0.775-0.003-1.161-0.52-1.158-1.342
						v-0.13l3.58,0.009c0.059-0.305,0.106-0.655,0.107-0.891C945.845,258.316,945.144,257.482,943.83,257.479z M944.705,259.617
						l-2.384-0.006c0.236-0.645,0.719-1.149,1.458-1.147c0.6,0.001,0.938,0.449,0.938,1.001
						C944.716,259.512,944.716,259.547,944.705,259.617z"/>
					<path fill="#FFFFFF" d="M937.994,256.502c0.823,0.002,1.313,0.473,1.383,1.047l1.185,0.004
						c-0.092-1.244-0.969-2.079-2.564-2.083c-1.502-0.003-2.572,0.979-2.575,2.306c-0.003,0.998,0.606,1.48,1.438,1.718l1.15,0.331
						c0.658,0.189,0.88,0.46,0.88,0.848c-0.002,0.798-0.639,1.207-1.507,1.205c-0.74-0.002-1.384-0.367-1.499-1.166l-1.197-0.003
						c0.115,1.456,1.203,2.197,2.693,2.201c1.434,0.003,2.689-0.885,2.693-2.376c0.002-0.927-0.582-1.456-1.508-1.729l-1.186-0.345
						c-0.588-0.165-0.775-0.448-0.774-0.847C936.607,256.909,937.196,256.5,937.994,256.502z"/>
					<path fill="#FFFFFF" d="M948.487,258.147l0.095-0.54l-1.173-0.002l-0.928,5.208l1.174,0.003l0.594-3.367
						c0.225-0.563,0.719-0.832,1.199-0.831c0.246,0.001,0.504,0.06,0.656,0.178l0.215-1.207c-0.07-0.048-0.293-0.095-0.551-0.096
						C949.262,257.492,948.746,257.761,948.487,258.147z"/>
					<polygon fill="#FFFFFF" points="915.098,255.109 913.743,262.734 914.915,262.737 916.272,255.112 					"/>
					<path fill="#FFFFFF" d="M911.586,255.523l-2.781-0.007l-1.285,7.203l1.221,0.003l0.477-2.688l1.561,0.004
						c1.608,0.004,2.889-0.907,2.893-2.55C913.673,256.208,912.889,255.527,911.586,255.523z M910.945,258.984l-1.538-0.004
						l0.429-2.406l1.538,0.004c0.751,0.002,1.078,0.402,1.077,0.979C912.448,258.425,911.883,258.986,910.945,258.984z"/>
				</g>
				<g>
					<path fill="#FFFFFF" d="M688.958,314.944c-1.422-0.003-2.444,1.167-2.447,2.728c-0.005,1.609,1.001,2.714,2.457,2.718
						c1.256,0.003,2.02-0.698,2.198-1.73l-1.079-0.003c-0.13,0.504-0.553,0.75-1.116,0.748c-0.753-0.002-1.279-0.555-1.312-1.471
						l3.556,0.008l0.001-0.422C691.219,315.993,690.424,314.947,688.958,314.944z M687.696,317.078
						c0.143-0.752,0.624-1.15,1.271-1.148c0.715,0.001,1.078,0.52,1.088,1.153L687.696,317.078z"/>
					<path fill="#FFFFFF" d="M684.256,318.478c-0.129,0.517-0.577,0.832-1.082,0.831c-0.67-0.002-0.975-0.425-0.973-1.07
						l0.008-3.192l-1.172-0.003l-0.008,3.392c-0.004,1.15,0.639,1.938,1.825,1.94c0.61,0.001,1.116-0.279,1.399-0.606l-0.002,0.492
						l1.172,0.003l0.013-5.211l-1.172-0.002L684.256,318.478z"/>
					<path fill="#FFFFFF" d="M702.746,314.978c-1.068-0.003-1.892,0.663-2.046,1.556l1.127,0.003
						c0.129-0.364,0.424-0.563,0.893-0.562c0.67,0.001,0.998,0.414,0.997,0.941l-0.001,0.423c-0.211-0.153-0.74-0.318-1.209-0.319
						c-1.15-0.003-2.031,0.687-2.033,1.673c-0.004,1.068,0.875,1.703,1.942,1.706c0.587,0.002,1.116-0.209,1.294-0.383l-0.002,0.292
						l1.113,0.003l0.008-3.415C704.833,315.709,704.06,314.98,702.746,314.978z M703.711,318.924
						c-0.13,0.328-0.602,0.526-1.07,0.525c-0.528-0.002-1.08-0.226-1.079-0.754c0.001-0.518,0.554-0.739,1.083-0.738
						c0.469,0.002,0.939,0.202,1.067,0.531L703.711,318.924z"/>
					<polygon fill="#FFFFFF" points="696.191,313.084 694.971,313.081 694.954,320.287 699.636,320.298 699.639,319.207 
						696.176,319.199 					"/>
					<path fill="#FFFFFF" d="M667.789,314.894c-1.067-0.003-1.891,0.663-2.045,1.556l1.126,0.003
						c0.129-0.364,0.424-0.563,0.893-0.562c0.67,0.001,0.998,0.414,0.997,0.941l-0.001,0.423c-0.211-0.153-0.738-0.318-1.209-0.319
						c-1.15-0.003-2.031,0.687-2.034,1.673c-0.003,1.068,0.876,1.703,1.943,1.706c0.588,0.002,1.116-0.209,1.294-0.383l-0.002,0.292
						l1.114,0.003l0.009-3.415C669.875,315.625,669.104,314.896,667.789,314.894z M668.754,318.84c-0.13,0.328-0.6,0.526-1.07,0.525
						c-0.528-0.001-1.08-0.226-1.078-0.754c0.001-0.518,0.553-0.739,1.082-0.738c0.471,0.002,0.939,0.202,1.067,0.531
						L668.754,318.84z"/>
					<path fill="#FFFFFF" d="M678.515,315.482c-0.233-0.294-0.751-0.564-1.326-0.566c-1.526-0.004-2.42,1.261-2.423,2.717
						c-0.004,1.456,0.885,2.725,2.41,2.729c0.574,0.001,1.093-0.268,1.328-0.56l-0.006,2.44l1.172,0.003l0.018-7.206l-1.172-0.002
						L678.515,315.482z M678.507,318.629c-0.2,0.41-0.647,0.69-1.13,0.689c-0.903-0.002-1.442-0.72-1.439-1.682
						c0.002-0.964,0.545-1.679,1.448-1.677c0.481,0.001,0.928,0.284,1.126,0.695L678.507,318.629z"/>
					<polygon fill="#FFFFFF" points="708.873,320.32 713.577,320.331 713.58,319.24 710.071,319.232 710.075,317.166 
						713.256,317.173 713.258,316.105 710.078,316.098 710.083,314.195 713.592,314.204 713.594,313.126 708.889,313.114 					"/>
					<path fill="#FFFFFF" d="M662.448,313.003l-2.781-0.007l-0.018,7.206l1.219,0.003l0.006-2.688l1.562,0.004
						c1.49,0.003,2.466-0.779,2.47-2.247C664.909,313.782,663.938,313.006,662.448,313.003z M662.416,316.465l-1.538-0.003
						l0.005-2.407l1.539,0.004c0.845,0.001,1.279,0.495,1.277,1.213C663.698,315.963,663.26,316.467,662.416,316.465z"/>
					<path fill="#FFFFFF" d="M672.391,315.562l0.002-0.54l-1.174-0.003l-0.012,5.21l1.172,0.003l0.009-3.369
						c0.118-0.562,0.565-0.832,1.046-0.83c0.247,0,0.528,0.06,0.693,0.178l0.002-1.208c-0.082-0.048-0.316-0.095-0.575-0.096
						C673.05,314.906,672.591,315.175,672.391,315.562z"/>
					<path fill="#FFFFFF" d="M731.708,315.047c-0.611-0.001-1.128,0.279-1.412,0.607l0.002-0.493l-1.172-0.003l-0.012,5.211
						l1.171,0.002l0.009-3.428c0.13-0.516,0.59-0.832,1.094-0.83c0.67,0.002,0.986,0.425,0.984,1.07l-0.008,3.192l1.172,0.003
						l0.008-3.393C733.547,315.837,732.893,315.05,731.708,315.047z"/>
					<path fill="#FFFFFF" d="M747.667,315.085c-1.421-0.003-2.444,1.167-2.448,2.729c-0.004,1.608,1.002,2.714,2.459,2.717
						c1.256,0.003,2.02-0.698,2.197-1.73l-1.078-0.003c-0.131,0.505-0.554,0.75-1.117,0.749c-0.752-0.002-1.279-0.556-1.312-1.472
						l3.557,0.008l0.002-0.421C749.929,316.135,749.135,315.089,747.667,315.085z M746.406,317.219
						c0.143-0.752,0.624-1.15,1.271-1.148c0.717,0.002,1.079,0.52,1.09,1.154L746.406,317.219z"/>
					<path fill="#FFFFFF" d="M717.346,317.313l-1.104-0.263c-0.375-0.095-0.539-0.248-0.538-0.482c0-0.41,0.424-0.598,0.834-0.597
						c0.541,0.001,0.846,0.237,0.951,0.577l1.148,0.003c-0.174-0.95-0.863-1.538-2.086-1.541c-1.138-0.003-1.972,0.687-1.975,1.626
						c-0.002,0.857,0.549,1.258,1.287,1.436l1.079,0.261c0.435,0.106,0.61,0.26,0.61,0.542c-0.001,0.41-0.354,0.621-0.895,0.619
						c-0.517-0.001-0.903-0.225-1.031-0.659l-1.196-0.003c0.149,1.01,0.993,1.621,2.214,1.624c1.174,0.003,2.031-0.628,2.034-1.661
						C718.68,318.032,718.236,317.526,717.346,317.313z"/>
					<rect x="751.028" y="312.794" fill="#FFFFFF" width="1.173" height="7.628"/>
					<path fill="#FFFFFF" d="M742.967,318.619c-0.131,0.516-0.578,0.832-1.083,0.83c-0.67-0.002-0.974-0.425-0.973-1.07l0.008-3.192
						l-1.171-0.003l-0.01,3.393c-0.002,1.15,0.641,1.937,1.826,1.939c0.61,0.002,1.115-0.279,1.399-0.605l-0.001,0.491l1.172,0.003
						l0.012-5.21l-1.172-0.003L742.967,318.619z"/>
					<polygon fill="#FFFFFF" points="738.714,315.92 738.715,315.182 734.657,315.172 734.653,316.145 737.211,316.15 
						734.528,319.644 734.526,320.381 738.75,320.392 738.752,319.419 736.042,319.412 					"/>
					<path fill="#FFFFFF" d="M721.313,318.813l0.006-2.701l1.174,0.003l0.002-0.973l-1.174-0.003l0.004-1.396l-1.173-0.003
						l-0.003,1.396l-0.822-0.002l-0.002,0.973l0.822,0.002l-0.008,2.83c-0.002,1.033,0.652,1.526,1.58,1.528
						c0.363,0.001,0.682-0.068,0.881-0.186l0.002-1.067c-0.164,0.117-0.434,0.211-0.669,0.21
						C721.545,319.424,721.311,319.235,721.313,318.813z"/>
					<path fill="#FFFFFF" d="M755.542,315.104c-1.069-0.002-1.892,0.664-2.046,1.557l1.125,0.003
						c0.131-0.364,0.424-0.563,0.895-0.562c0.67,0.002,0.997,0.415,0.996,0.942l-0.002,0.423c-0.211-0.153-0.738-0.318-1.209-0.319
						c-1.15-0.003-2.031,0.686-2.033,1.673c-0.002,1.068,0.875,1.703,1.943,1.706c0.588,0.001,1.117-0.209,1.293-0.384v0.293
						l1.113,0.003l0.008-3.415C757.629,315.836,756.857,315.107,755.542,315.104z M756.506,319.051
						c-0.129,0.328-0.6,0.526-1.068,0.525c-0.529-0.002-1.08-0.226-1.08-0.754c0.002-0.518,0.555-0.739,1.084-0.738
						c0.469,0.001,0.938,0.202,1.066,0.531L756.506,319.051z"/>
					<path fill="#FFFFFF" d="M725.694,315.033c-1.068-0.003-1.891,0.662-2.046,1.556l1.126,0.003
						c0.13-0.365,0.425-0.564,0.895-0.562c0.669,0.002,0.998,0.414,0.996,0.942v0.423c-0.213-0.153-0.74-0.319-1.21-0.32
						c-1.151-0.003-2.031,0.687-2.034,1.674c-0.002,1.068,0.875,1.703,1.943,1.705c0.588,0.002,1.116-0.209,1.293-0.383v0.292
						l1.113,0.003l0.008-3.414C727.78,315.765,727.008,315.035,725.694,315.033z M726.661,318.979
						c-0.131,0.328-0.602,0.527-1.071,0.525c-0.528-0.001-1.08-0.225-1.079-0.753c0.002-0.519,0.555-0.739,1.083-0.738
						c0.47,0.001,0.938,0.202,1.067,0.53V318.979z"/>
				</g>
				<g>
					<polygon fill="#FFFFFF" points="1004.743,27.615 996.792,27.607 1004.749,21.978 1004.75,20.015 992.813,20.003 
						992.811,22.395 1000.355,22.401 992.805,27.662 992.803,29.995 1004.741,30.007 					"/>
					<polygon fill="#FFFFFF" points="987.781,20.359 980.639,24.934 987.772,29.522 					"/>
				</g>
				<path fill="#FFFFFF" d="M778.911,161.432c-0.004-5.494-4.475-9.96-9.969-9.957c-5.493,0.003-9.959,4.475-9.957,9.968
					c0.004,5.493,4.476,9.96,9.969,9.957c1.303-0.001,2.545-0.255,3.686-0.712l1.509,1.932l3.208-2.506l-1.316-1.687
					C777.815,166.625,778.913,164.154,778.911,161.432z M768.952,167.003c-3.068,0.001-5.567-2.494-5.569-5.563
					c-0.001-3.068,2.494-5.566,5.562-5.568s5.567,2.494,5.569,5.562C774.516,164.503,772.02,167.001,768.952,167.003z"/>
				<polygon fill="#FFFFFF" points="786.038,171.81 790.303,171.807 790.294,156.357 796.207,156.354 796.204,152.277 
					786.026,152.283 786.028,156.36 				"/>
			</g>
			<g>
				<defs>
					<rect id="SVGID_3_" width="1024" height="341.337"/>
				</defs>
				<clipPath id="SVGID_4_">
					<use xlink:href="#SVGID_3_"  overflow="visible"/>
				</clipPath>
				<path clip-path="url(#SVGID_4_)" fill="#FFFFFF" d="M268.075,66.756c40.134,27.856,88.169,42.764,136.921,42.764
					c5.823,0,11.665-0.213,17.496-0.642c54.648-4.021,106.708-26.845,146.588-64.267c39.303-36.879,65.324-86.371,73.274-139.357
					l-3.956-0.594c-7.816,52.102-33.406,100.768-72.055,137.034c-39.215,36.798-90.407,59.24-144.146,63.194
					c-53.737,3.953-107.664-10.756-151.842-41.419c-43.541-30.22-75.976-74.618-91.333-125.015l-3.826,1.166
					C190.813-9.126,223.799,36.025,268.075,66.756z"/>
			</g>
		</g>
	</g>
</g>
</svg>
