<?xml version="1.0" encoding="utf-8"?>
<!-- Generator: Adobe Illustrator 16.0.0, SVG Export Plug-In . SVG Version: 6.00 Build 0)  -->
<!DOCTYPE svg PUBLIC "-//W3C//DTD SVG 1.1//EN" "http://www.w3.org/Graphics/SVG/1.1/DTD/svg11.dtd">
<svg version="1.1" id="Layer_1" xmlns="http://www.w3.org/2000/svg" xmlns:xlink="http://www.w3.org/1999/xlink" x="0px" y="0px"
	 width="124.986px" height="106.614px" viewBox="0 0 124.986 106.614" enable-background="new 0 0 124.986 106.614"
	 xml:space="preserve">
<g>
	<g>
		<path d="M22.31,92.015v14.443h-2.161V95.176h-0.039l-2.241,11.282h-1.2l-2.24-11.282h-0.04v11.282h-2.16V92.015h3.261l1.76,8.441
			h0.04l1.761-8.441H22.31z"/>
		<path d="M25.515,95.516c0-2.04,1.2-3.7,3.801-3.7s3.801,1.66,3.801,3.7v7.441c0,2.04-1.2,3.701-3.801,3.701
			s-3.801-1.661-3.801-3.701V95.516z M27.995,102.897c0,1.08,0.32,1.6,1.32,1.6s1.32-0.52,1.32-1.6v-7.322c0-1.08-0.32-1.6-1.32-1.6
			s-1.32,0.52-1.32,1.6V102.897z"/>
		<path d="M36.381,92.015h3.681c2.561,0,3.921,1.4,3.921,4.361v5.721c0,2.961-1.36,4.361-3.921,4.361h-3.681V92.015z
			 M38.861,104.417h0.86c1.32,0,1.78-0.5,1.78-2.02v-6.322c0-1.52-0.46-2.02-1.78-2.02h-0.86V104.417z"/>
		<path d="M47.219,106.458V92.015h6.642v2.16h-4.161v3.721H52.9v2.161h-3.201v4.241h4.441v2.16H47.219z"/>
		<path d="M59.631,106.458h-2.48V92.015h3.48c2.781,0,4.201,1.181,4.201,4.262c0,2.32-0.9,3.26-1.74,3.641l2.101,6.541h-2.521
			l-1.761-5.981c-0.32,0.04-0.84,0.06-1.28,0.06V106.458z M59.631,98.496h0.88c1.341,0,1.841-0.5,1.841-2.22
			c0-1.721-0.5-2.221-1.841-2.221h-0.88V98.496z"/>
		<path d="M68.213,106.458V92.015h2.301l3.021,8.262h0.04v-8.262h2.24v14.443h-2.16l-3.161-9.021h-0.04v9.021H68.213z"/>
		<path d="M79.282,106.458V92.015h2.48v14.443H79.282z"/>
		<path d="M85.215,92.015h3.681c2.561,0,3.921,1.4,3.921,4.361v5.721c0,2.961-1.36,4.361-3.921,4.361h-3.681V92.015z
			 M87.695,104.417h0.86c1.32,0,1.78-0.5,1.78-2.02v-6.322c0-1.52-0.46-2.02-1.78-2.02h-0.86V104.417z"/>
		<path d="M97.677,106.458h-2.4l2.66-14.443h3.081l2.66,14.443h-2.4l-0.44-3.201h-2.72L97.677,106.458z M98.477,101.097h2.001
			l-0.98-6.201h-0.04L98.477,101.097z"/>
		<path d="M106.442,92.015h3.681c2.561,0,3.921,1.4,3.921,4.361v5.721c0,2.961-1.36,4.361-3.921,4.361h-3.681V92.015z
			 M108.923,104.417h0.86c1.32,0,1.78-0.5,1.78-2.02v-6.322c0-1.52-0.46-2.02-1.78-2.02h-0.86V104.417z"/>
	</g>
</g>
<path d="M34.577,0v58.064h57.256V0H34.577z M47.931,54.168H38.42V30.982h9.511V54.168z M61.284,54.168h-9.511V30.982h9.511V54.168z
	 M61.284,27.085H38.42V3.896h22.864V27.085z M74.637,54.168h-9.511V3.896h9.511V54.168z M87.99,54.168h-9.512V3.896h9.512V54.168z"
	/>
</svg>
