<?xml version="1.0" encoding="utf-8"?>
<!-- Generator: Adobe Illustrator 16.0.0, SVG Export Plug-In . SVG Version: 6.00 Build 0)  -->
<!DOCTYPE svg PUBLIC "-//W3C//DTD SVG 1.1//EN" "http://www.w3.org/Graphics/SVG/1.1/DTD/svg11.dtd">
<svg version="1.1" id="Layer_1" xmlns="http://www.w3.org/2000/svg" xmlns:xlink="http://www.w3.org/1999/xlink" x="0px" y="0px"
	 width="341.338px" height="341.337px" viewBox="0 0 341.338 341.337" enable-background="new 0 0 341.338 341.337"
	 xml:space="preserve">
<g>
	<rect width="341.338" height="341.337"/>
	<g>
		<path fill="#FFFFFF" d="M178.408,167.067c0-32.364-26.331-58.695-58.696-58.695c-32.365,0-58.696,26.331-58.696,58.695
			c0,32.365,26.331,58.697,58.696,58.697c7.671,0,14.994-1.495,21.718-4.183l8.881,11.383l18.91-14.754l-7.756-9.939
			C171.933,197.666,178.408,183.111,178.408,167.067z M86.924,167.067c0-18.079,14.708-32.788,32.788-32.788
			c18.081,0,32.789,14.709,32.789,32.788c0,18.08-14.708,32.79-32.789,32.79C101.632,199.857,86.924,185.147,86.924,167.067z"/>
		<path fill="#FFFFFF" d="M245.49,137.218v91.021h-25.131v-91.021l0,0v-24.016h59.962v24.016H245.49z"/>
	</g>
</g>
</svg>
