<?xml version="1.0" encoding="utf-8"?>
<!-- Generator: Adobe Illustrator 16.0.0, SVG Export Plug-In . SVG Version: 6.00 Build 0)  -->
<!DOCTYPE svg PUBLIC "-//W3C//DTD SVG 1.1//EN" "http://www.w3.org/Graphics/SVG/1.1/DTD/svg11.dtd">
<svg version="1.1" id="Layer_1" xmlns="http://www.w3.org/2000/svg" xmlns:xlink="http://www.w3.org/1999/xlink" x="0px" y="0px"
	 width="360.575px" height="207.168px" viewBox="0 0 360.575 207.168" enable-background="new 0 0 360.575 207.168"
	 xml:space="preserve">
<rect y="5.185" fill="none" width="348.959" height="191.477"/>
<g enable-background="new    ">
	<path d="M2.88,5.181h8.833c6.145,0,9.409,3.36,9.409,10.465v13.729c0,7.104-3.265,10.465-9.409,10.465H2.88V5.181z M8.833,34.943
		h2.064c3.168,0,4.272-1.2,4.272-4.849V14.926c0-3.648-1.104-4.849-4.272-4.849H8.833V34.943z"/>
	<path d="M26.88,39.84V5.181h15.937v5.185h-9.984v8.929h7.681v5.185h-7.681v10.177H43.49v5.185H26.88z"/>
	<path d="M59.041,13.726c-0.24-2.977-1.824-3.841-3.168-3.841c-1.92,0-2.977,1.249-2.977,3.409c0,5.904,12.097,8.736,12.097,18.146
		c0,5.712-3.84,8.881-9.409,8.881c-5.521,0-8.689-4.417-8.929-9.602l5.665-0.815c0.24,3.504,1.632,5.232,3.552,5.232
		c2.064,0,3.456-1.104,3.456-3.169c0-6.864-12.097-8.688-12.097-18.625c0-5.521,3.36-8.641,9.217-8.641
		c4.849,0,7.729,3.504,8.257,8.4L59.041,13.726z"/>
	<path d="M72.959,39.84h-5.76l6.384-34.659h7.393L87.36,39.84H81.6l-1.056-7.681h-6.529L72.959,39.84z M74.879,26.975h4.8
		l-2.352-14.881h-0.096L74.879,26.975z"/>
	<path d="M96.767,39.84h-5.953V5.181h8.353c6.673,0,10.081,2.832,10.081,10.225c0,5.569-2.16,7.825-4.176,8.737l5.04,15.697h-6.048
		l-4.224-14.354c-0.769,0.097-2.017,0.145-3.072,0.145V39.84z M96.767,20.734h2.112c3.216,0,4.417-1.2,4.417-5.329
		c0-4.128-1.2-5.328-4.417-5.328h-2.112V20.734z"/>
	<path d="M120.767,39.84h-5.953V5.181h8.353c6.673,0,10.081,2.832,10.081,10.225c0,5.569-2.16,7.825-4.176,8.737l5.04,15.697h-6.048
		l-4.224-14.354c-0.769,0.097-2.017,0.145-3.072,0.145V39.84z M120.767,20.734h2.112c3.216,0,4.417-1.2,4.417-5.329
		c0-4.128-1.2-5.328-4.417-5.328h-2.112V20.734z"/>
	<path d="M138.814,13.582c0-4.896,2.88-8.881,9.121-8.881c6.241,0,9.121,3.984,9.121,8.881v17.857c0,4.896-2.88,8.881-9.121,8.881
		c-6.24,0-9.121-3.984-9.121-8.881V13.582z M144.767,31.295c0,2.593,0.768,3.841,3.168,3.841s3.168-1.248,3.168-3.841V13.726
		c0-2.592-0.768-3.841-3.168-3.841s-3.168,1.249-3.168,3.841V31.295z"/>
	<path d="M162.526,39.84V5.181h5.953v29.475h9.361v5.185H162.526z"/>
	<path d="M181.198,39.84V5.181h5.953v29.475h9.36v5.185H181.198z"/>
	<path d="M200.158,13.582c0-4.896,2.88-8.881,9.12-8.881c6.241,0,9.121,3.984,9.121,8.881v17.857c0,4.896-2.88,8.881-9.121,8.881
		c-6.24,0-9.12-3.984-9.12-8.881V13.582z M206.11,31.295c0,2.593,0.768,3.841,3.168,3.841s3.169-1.248,3.169-3.841V13.726
		c0-2.592-0.769-3.841-3.169-3.841s-3.168,1.249-3.168,3.841V31.295z"/>
</g>
<g enable-background="new    ">
	<path d="M2.88,57.181h8.833c6.145,0,9.409,3.36,9.409,10.465v13.729c0,7.104-3.265,10.465-9.409,10.465H2.88V57.181z M8.833,86.943
		h2.064c3.168,0,4.272-1.2,4.272-4.849V66.926c0-3.648-1.104-4.849-4.272-4.849H8.833V86.943z"/>
	<path d="M26.88,91.84V57.181h15.937v5.185h-9.984v8.929h7.681v5.185h-7.681v10.177H43.49v5.185H26.88z"/>
</g>
<text transform="matrix(1 0 0 1 46.271 91.8398)" font-family="'TradeGothicLTStd-BdCn20'" font-size="48" letter-spacing="198"> </text>
<g enable-background="new    ">
	<path d="M259.776,57.181h5.953v26.162c0,2.545,1.008,3.793,3.168,3.793s3.168-1.248,3.168-3.793V57.181h5.953v25.923
		c0,5.952-3.457,9.217-9.121,9.217s-9.121-3.265-9.121-9.217V57.181z"/>
	<path d="M294.625,65.726c-0.24-2.977-1.824-3.841-3.168-3.841c-1.921,0-2.977,1.249-2.977,3.409
		c0,5.904,12.097,8.736,12.097,18.146c0,5.712-3.841,8.881-9.409,8.881c-5.52,0-8.688-4.417-8.928-9.602l5.664-0.815
		c0.24,3.504,1.632,5.232,3.553,5.232c2.063,0,3.455-1.104,3.455-3.169c0-6.864-12.097-8.688-12.097-18.625
		c0-5.521,3.36-8.641,9.217-8.641c4.849,0,7.729,3.504,8.257,8.4L294.625,65.726z"/>
	<path d="M305.088,65.582c0-4.896,2.88-8.881,9.12-8.881c6.241,0,9.121,3.984,9.121,8.881v17.857c0,4.896-2.88,8.881-9.121,8.881
		c-6.24,0-9.12-3.984-9.12-8.881V65.582z M311.041,83.295c0,2.593,0.768,3.841,3.168,3.841s3.169-1.248,3.169-3.841V65.726
		c0-2.592-0.769-3.841-3.169-3.841s-3.168,1.249-3.168,3.841V83.295z"/>
	<path d="M339.936,65.726c-0.239-2.977-1.823-3.841-3.168-3.841c-1.92,0-2.977,1.249-2.977,3.409
		c0,5.904,12.098,8.736,12.098,18.146c0,5.712-3.84,8.881-9.408,8.881c-5.521,0-8.689-4.417-8.93-9.602l5.665-0.815
		c0.239,3.504,1.632,5.232,3.552,5.232c2.064,0,3.457-1.104,3.457-3.169c0-6.864-12.098-8.688-12.098-18.625
		c0-5.521,3.36-8.641,9.217-8.641c4.849,0,7.729,3.504,8.257,8.4L339.936,65.726z"/>
</g>
<g enable-background="new    ">
	<path d="M136.035,109.181v34.659h-5.185v-27.074h-0.096l-5.376,27.074h-2.88l-5.376-27.074h-0.096v27.074h-5.184v-34.659h7.825
		l4.224,20.258h0.096l4.224-20.258H136.035z"/>
	<path d="M142.321,143.84v-34.659h5.953v34.659H142.321z"/>
	<path d="M159.458,125.694l-6.336-16.514h5.856l3.648,10.993h0.096l3.312-10.993h5.856l-6,16.514l6.72,18.146h-5.856l-4.032-12.625
		h-0.096l-4.128,12.625h-5.856L159.458,125.694z"/>
	<path d="M179.616,114.365h-5.76v-5.185h17.473v5.185h-5.76v29.475h-5.953V114.365z"/>
	<path d="M194.832,117.582c0-4.896,2.88-8.881,9.12-8.881c6.241,0,9.121,3.984,9.121,8.881v17.857c0,4.896-2.88,8.881-9.121,8.881
		c-6.24,0-9.12-3.984-9.12-8.881V117.582z M200.784,135.295c0,2.593,0.768,3.841,3.168,3.841s3.169-1.248,3.169-3.841v-17.569
		c0-2.592-0.769-3.841-3.169-3.841s-3.168,1.249-3.168,3.841V135.295z"/>
	<path d="M229.68,117.726c-0.24-2.977-1.824-3.841-3.168-3.841c-1.92,0-2.977,1.249-2.977,3.409c0,5.904,12.098,8.736,12.098,18.146
		c0,5.712-3.841,8.881-9.409,8.881c-5.521,0-8.688-4.417-8.929-9.602l5.664-0.815c0.24,3.504,1.633,5.232,3.553,5.232
		c2.064,0,3.456-1.104,3.456-3.169c0-6.864-12.097-8.688-12.097-18.625c0-5.521,3.359-8.641,9.217-8.641
		c4.848,0,7.729,3.504,8.256,8.4L229.68,117.726z"/>
</g>
<g enable-background="new    ">
	<path d="M14.881,172.75v-2.688c0-2.928-1.344-4.177-2.88-4.177c-2.4,0-3.168,1.249-3.168,3.841v17.569
		c0,2.593,0.768,3.841,3.168,3.841c2.16,0,2.88-1.248,2.88-3.505v-4.176h5.953v3.984c0,4.896-2.88,8.881-8.833,8.881
		c-6.24,0-9.121-3.984-9.121-8.881v-17.857c0-4.896,2.88-8.881,9.121-8.881c5.953,0,8.833,4.32,8.833,9.505v2.544H14.881z"/>
	<path d="M26.592,195.84v-34.659h5.953v29.475h9.361v5.185H26.592z"/>
	<path d="M49.008,195.84h-5.76l6.384-34.659h7.393l6.385,34.659h-5.76l-1.056-7.681h-6.529L49.008,195.84z M50.929,182.975h4.8
		l-2.352-14.881h-0.096L50.929,182.975z"/>
	<path d="M77.712,169.726c-0.24-2.977-1.824-3.841-3.168-3.841c-1.92,0-2.977,1.249-2.977,3.409c0,5.904,12.097,8.736,12.097,18.146
		c0,5.712-3.84,8.881-9.409,8.881c-5.521,0-8.689-4.417-8.929-9.602l5.665-0.815c0.24,3.504,1.632,5.232,3.552,5.232
		c2.064,0,3.456-1.104,3.456-3.169c0-6.864-12.097-8.688-12.097-18.625c0-5.521,3.36-8.641,9.217-8.641
		c4.848,0,7.729,3.504,8.256,8.4L77.712,169.726z"/>
	<path d="M88.174,195.84v-34.659h15.937v5.185h-9.984v8.929h7.681v5.185h-7.681v10.177h10.657v5.185H88.174z"/>
</g>
<text transform="matrix(1 0 0 1 109.0068 195.8398)" font-family="'TradeGothicLTStd-BdCn20'" font-size="48" letter-spacing="177"> </text>
<g enable-background="new    ">
	<path d="M304.706,195.84h-5.76l6.384-34.659h7.393l6.385,34.659h-5.761l-1.056-7.681h-6.528L304.706,195.84z M306.625,182.975
		h4.801l-2.352-14.881h-0.097L306.625,182.975z"/>
	<path d="M331.729,171.55h4.705v9.793h9.793v4.704h-9.793v9.793h-4.705v-9.793h-9.792v-4.704h9.792V171.55z"/>
</g>
</svg>
