<?xml version="1.0" encoding="utf-8"?>
<!-- Generator: Adobe Illustrator 16.0.0, SVG Export Plug-In . SVG Version: 6.00 Build 0)  -->
<!DOCTYPE svg PUBLIC "-//W3C//DTD SVG 1.1//EN" "http://www.w3.org/Graphics/SVG/1.1/DTD/svg11.dtd">
<svg version="1.1" id="Layer_1" xmlns="http://www.w3.org/2000/svg" xmlns:xlink="http://www.w3.org/1999/xlink" x="0px" y="0px"
	 width="124.986px" height="106.614px" viewBox="0 0 124.986 106.614" enable-background="new 0 0 124.986 106.614"
	 xml:space="preserve">
<g>
	<g>
		<path d="M20.4,91.95h2.48v10.902c0,1.061,0.42,1.58,1.32,1.58s1.32-0.52,1.32-1.58V91.95h2.48v10.803c0,2.48-1.44,3.84-3.801,3.84
			s-3.801-1.359-3.801-3.84V91.95z"/>
		<path d="M31.293,91.95h3.681c2.661,0,3.841,1.359,3.841,3.82c0,1.24-0.52,2.541-1.72,3.021c1.26,0.56,2,1.56,2,3.42
			c0,2.381-1.061,4.182-3.881,4.182h-3.921V91.95z M33.774,97.871h0.9c0.94,0,1.66-0.64,1.66-1.841c0-1.34-0.52-2.04-1.62-2.04
			h-0.94V97.871z M33.774,104.353h1.04c1.32,0,1.801-0.76,1.801-2.221c0-1.48-0.561-2.221-2.04-2.221h-0.801V104.353z"/>
		<path d="M42.402,106.394V91.95h2.48v14.443H42.402z"/>
		<path d="M53.308,96.771v-1.119c0-1.221-0.56-1.74-1.2-1.74c-1,0-1.32,0.52-1.32,1.6v7.322c0,1.08,0.32,1.6,1.32,1.6
			c0.9,0,1.2-0.52,1.2-1.461v-1.74h2.48v1.66c0,2.041-1.2,3.701-3.681,3.701c-2.601,0-3.801-1.66-3.801-3.701V95.45
			c0-2.04,1.2-3.7,3.801-3.7c2.48,0,3.681,1.8,3.681,3.961v1.06H53.308z"/>
		<path d="M60.758,106.394h-2.4l2.66-14.443h3.081l2.661,14.443h-2.401l-0.44-3.201h-2.72L60.758,106.394z M61.558,101.032h2.001
			l-0.98-6.201h-0.04L61.558,101.032z"/>
		<path d="M74.27,96.771v-1.119c0-1.221-0.559-1.74-1.199-1.74c-1,0-1.32,0.52-1.32,1.6v7.322c0,1.08,0.32,1.6,1.32,1.6
			c0.9,0,1.199-0.52,1.199-1.461v-1.74h2.48v1.66c0,2.041-1.199,3.701-3.68,3.701c-2.602,0-3.801-1.66-3.801-3.701V95.45
			c0-2.04,1.199-3.7,3.801-3.7c2.48,0,3.68,1.8,3.68,3.961v1.06H74.27z"/>
		<path d="M80.215,106.394V91.95h2.48v14.443H80.215z"/>
		<path d="M86.121,95.45c0-2.04,1.199-3.7,3.801-3.7c2.6,0,3.801,1.66,3.801,3.7v7.441c0,2.041-1.201,3.701-3.801,3.701
			c-2.602,0-3.801-1.66-3.801-3.701V95.45z M90.162,91.19h-1.66l1.58-2.881h2.699L90.162,91.19z M88.602,102.833
			c0,1.08,0.32,1.6,1.32,1.6s1.32-0.52,1.32-1.6v-7.322c0-1.08-0.32-1.6-1.32-1.6s-1.32,0.52-1.32,1.6V102.833z"/>
		<path d="M96.986,106.394V91.95h2.301l3.021,8.262h0.039V91.95h2.24v14.443h-2.16l-3.16-9.022h-0.041v9.022H96.986z"/>
	</g>
</g>
<path d="M62.493,0C47.93,0,36.08,11.849,36.08,26.413c0,18.911,24.308,33.936,25.342,34.565l1.113,0.678l1.089-0.715
	c1.032-0.679,25.282-16.812,25.282-34.528C88.906,11.849,77.058,0,62.493,0z M62.271,33.124c-2.383,0-4.322-1.938-4.322-4.321
	c0-2.384,1.939-4.322,4.322-4.322s4.322,1.938,4.322,4.322C66.594,31.186,64.654,33.124,62.271,33.124z M64.33,55.364V36.977
	c3.659-0.923,6.381-4.232,6.381-8.174c0-4.653-3.786-8.438-8.439-8.438c-4.654,0-8.438,3.785-8.438,8.438
	c0,3.941,2.72,7.252,6.381,8.174V55.18c-6.463-4.688-20.017-16.041-20.017-28.767c0-12.295,10.002-22.298,22.296-22.298
	S84.79,14.118,84.79,26.413C84.79,38.524,70.631,50.593,64.33,55.364z"/>
</svg>
